<svg xmlns="http://www.w3.org/2000/svg" viewBox="0 0 125.27 158.71"><defs><style>.cls-1{fill:#f3f1eb;}</style></defs><g id="Layer_1" data-name="Layer 1"><path class="cls-1" d="M110,103.6c1.19-.48,2.39-.92,3.6-1.33-.12.28-.18.69-.52.79-1.75.62-3.48,1.32-5.2,2a8.82,8.82,0,0,0-2.12,1.19c.11-.41.19-.9.6-1.12A33.55,33.55,0,0,1,110,103.6Z"/><path class="cls-1" d="M99.92,103.63c1.51-.48,3.07-.8,4.59-1.25a3,3,0,0,1-.48,1,6.37,6.37,0,0,1-1.28.41c-3.18.79-6.27,1.85-9.38,2.87-1.57.56-3.15,1.1-4.67,1.77-.56.21-1.12.41-1.65.67.16-.39.11-1,.58-1.17s1.22-.46,1.82-.73c0-1,.6-1.87.48-2.87,0-.33-.26-.74-.64-.65s-.24.7-.61.85a3.75,3.75,0,0,1,.34-1.43c.12-.3.4-.64.76-.54a1.06,1.06,0,0,1,.63,1,6.06,6.06,0,0,1-.26,1.84,9.83,9.83,0,0,1-.54,1.75c2.13-.87,4.32-1.58,6.5-2.29C97.39,104.44,98.63,104,99.92,103.63Z"/><path class="cls-1" d="M8.22,103.3a1.36,1.36,0,0,1,.58-.82c.44-.12.83.22,1.13.49a3.4,3.4,0,0,1-.14,1.09c-.29-.17-.54-.45-.89-.47s-.46.46-.55.75c-.2.91-.15,1.85-.38,2.76a2.67,2.67,0,0,1,1.67,1.34,2.15,2.15,0,0,1-.21,1,4.8,4.8,0,0,0-2.58.54c-.36.23-.29.73-.15,1.08.46,1.34,1,2.65,1.42,4a11.62,11.62,0,0,1,.66,3.19,3.14,3.14,0,0,1-.14,1.1c-.23-.23-.15-.58-.19-.88a12.07,12.07,0,0,0-.75-3c-.41-1.33-1-2.6-1.39-3.94A2.86,2.86,0,0,1,6.78,109a3.39,3.39,0,0,1,1.48-.57,1.59,1.59,0,0,0-.7-.16c-.21.11-.38.28-.58.4a2.32,2.32,0,0,1,.61-1.53A11.34,11.34,0,0,0,6.82,105c-.15,0-.31.1-.44,0-.42-.25-.89-.39-1.29-.66a2.36,2.36,0,0,1,.07-1.18c.19-.43.78-.34,1.09-.09A5.67,5.67,0,0,1,7.84,106,18.26,18.26,0,0,1,8.22,103.3Z"/><path class="cls-1" d="M23.28,102.41c.15.32.21.66.36,1a5.35,5.35,0,0,1,.64,1.94,4.34,4.34,0,0,1-.21,1.13.8.8,0,0,1-1,.45c-.6-.13-.85-.76-1-1.28a2.75,2.75,0,0,1-.61,1.34,1.06,1.06,0,0,1-1.49,0,2.5,2.5,0,0,1-.3-2,2.86,2.86,0,0,1,.3-1.47c.32.76-.25,1.61.21,2.33a1,1,0,0,0,1.63-.34,4.23,4.23,0,0,0-.4-1.91,4.2,4.2,0,0,1,.25-1.09c.61.9.45,2.12,1.14,3a.9.9,0,0,0,1.13.2c-.19-.9-1-1.68-.75-2.64A5.18,5.18,0,0,1,23.28,102.41Z"/><path class="cls-1" d="M26.94,102.42a7,7,0,0,1,.54,1.1,32.24,32.24,0,0,1,1.4,3.77.82.82,0,0,1-.12.74,15.09,15.09,0,0,0-1-1.22l-.09.32c.39,4.08,1,8.15.95,12.26a13.46,13.46,0,0,1-.87,4.06,5.55,5.55,0,0,0-.3,2.93,1.61,1.61,0,0,0,1.33,1.24,4.63,4.63,0,0,0,3.16-1.31,18.35,18.35,0,0,0,3.82-4c.23-.26.09-.61,0-.91a36.49,36.49,0,0,0-2.52-6.87,1.36,1.36,0,0,1-.05-.87,6.65,6.65,0,0,1,.3-1.46,3.24,3.24,0,0,1,.51.66A19.58,19.58,0,0,1,36.3,118q.41,1.68.69,3.39a5.43,5.43,0,0,0,1.31,2.91,2.56,2.56,0,0,0,2,.63,2.75,2.75,0,0,0,1.73-1,21.26,21.26,0,0,1,1.33-2.06c.11-.16.32-.15.5-.18,0,.25,0,.5-.05.75a1.88,1.88,0,0,0,1.7,1.54,2.51,2.51,0,0,0,2.31-1.49c.35-.55.5-1.35,1.17-1.6,0,.48-.36.94-.19,1.42a2,2,0,0,0,2.6.83,5.13,5.13,0,0,0-.41-.81q.26-1,.57-1.89A2.88,2.88,0,0,1,52,123c-.23.8-.34,1.8-1.14,2.24a2.25,2.25,0,0,1-2.94-1.35,3.73,3.73,0,0,1-1.44,1.85,2.12,2.12,0,0,1-2.5-.16,2.76,2.76,0,0,1-.81-1.64,14.87,14.87,0,0,1-1.49,2.33,2.64,2.64,0,0,1-2.3.76,3,3,0,0,1-2-1.41,9.12,9.12,0,0,1-1.07-3.23,5.5,5.5,0,0,1-.69,2,19,19,0,0,1-3.48,3.79,6,6,0,0,1-2.86,1.55,2.06,2.06,0,0,1-2.17-1.39,7.54,7.54,0,0,1,.08-4.51,13.8,13.8,0,0,1-2.75,1.29,19.37,19.37,0,0,0-3.59,1.63,14.72,14.72,0,0,0-3.31,3.14,9.31,9.31,0,0,1-2.21,2,2.15,2.15,0,0,1-2.36.05,3.47,3.47,0,0,1-1.36-2.41,8.46,8.46,0,0,1,.67-4.15c-1.07.57-2.09,1.24-3.2,1.73a18.87,18.87,0,0,1-2.79,1.07c-1,.19-2.11.26-3.16.45s-2.06.41-3.1.55a1.36,1.36,0,0,0,0-.2,3.5,3.5,0,0,1,1.12-.53c1.26-.41,2.49-.92,3.74-1.36,1.08-.4,2.1-.92,3.15-1.38a31.75,31.75,0,0,0,3.08-1.56,45.15,45.15,0,0,0,5.07-3.21,11.56,11.56,0,0,0,1.91-1.72c.13-.15.06-.36.06-.54a8.13,8.13,0,0,0-.65-2.47c-.12-.31-.44-.59-.31-1a11.39,11.39,0,0,1,.42-1.65,4.61,4.61,0,0,1,.62,1,2.28,2.28,0,0,0,2.71-.29c.52-.44.62-1.16,1.08-1.64a1.93,1.93,0,0,1,.63-.42,2.68,2.68,0,0,1,.32,2.18c-.09.4,0,.9-.39,1.17a6.73,6.73,0,0,0-.24-1.25c-.61.25-.75.93-1.06,1.42A2.58,2.58,0,0,1,18.81,117a7.89,7.89,0,0,1-.12,1.75,4.33,4.33,0,0,1-.88,2.33,19,19,0,0,1-3.8,3.11c-.34.26-.78.44-1,.84a7,7,0,0,0-.91,4.15,1.67,1.67,0,0,0,.67,1.28,1.51,1.51,0,0,0,1.4,0,11.31,11.31,0,0,0,3.56-2.9,13.51,13.51,0,0,1,3.91-3.23,28,28,0,0,1,3.65-1.45,8.86,8.86,0,0,0,2.21-1.07c.25-.15.17-.48.2-.72,0-2.47-.25-4.92-.46-7.38s-.58-4.68-.71-7a7.06,7.06,0,0,0-.46-2.58C26.37,103.54,26.62,103,26.94,102.42Z"/><path class="cls-1" d="M30.69,102.41A34.73,34.73,0,0,1,32.2,106a3.21,3.21,0,0,1,.35,1.91c-.5-.24-.64-.85-1.08-1.16.13,2.21.57,4.38.77,6.59.13,1,.2,2,.26,3a29.52,29.52,0,0,1,.09,5.64,8,8,0,0,1-.52,2.41.88.88,0,0,1-.3.39,3.25,3.25,0,0,1,0-.88,60.14,60.14,0,0,0-.51-9.76c-.29-2.37-.67-4.74-.82-7.14a9.87,9.87,0,0,0-.47-2.7C30.2,103.69,30.4,103,30.69,102.41Z"/><path class="cls-1" d="M40.64,103.3a1.32,1.32,0,0,1,.58-.82c.43-.12.82.22,1.13.49a3.16,3.16,0,0,1-.15,1.09c-.28-.17-.54-.45-.89-.47s-.46.46-.55.75c-.19.91-.14,1.85-.38,2.76a2.69,2.69,0,0,1,1.68,1.34,2.29,2.29,0,0,1-.21,1,4.8,4.8,0,0,0-2.58.54c-.36.23-.29.72-.16,1.07.47,1.34,1,2.66,1.43,4a12.06,12.06,0,0,1,.62,2.72,3.47,3.47,0,0,1-.11,1.57c-.2-.21-.15-.5-.18-.76a14.39,14.39,0,0,0-1-3.8c-.36-1.13-.88-2.21-1.18-3.36a2.86,2.86,0,0,1,.49-2.43,3.39,3.39,0,0,1,1.48-.57,1.53,1.53,0,0,0-.7-.16c-.21.11-.37.28-.58.4a2.33,2.33,0,0,1,.62-1.52,11.91,11.91,0,0,0-.77-2.12c-.15,0-.32.1-.45,0-.41-.25-.88-.39-1.28-.66a2.55,2.55,0,0,1,0-1,.55.55,0,0,1,.61-.45,1.89,1.89,0,0,1,1.19.92,8.51,8.51,0,0,1,.93,2.17A18.28,18.28,0,0,1,40.64,103.3Z"/><path class="cls-1" d="M47.22,103.63a2.25,2.25,0,0,1,.56-1.24c0,1-.63,1.92-.48,2.93,0,.32.3.69.66.58s.24-.66.55-.86a2.7,2.7,0,0,1-.26,1.34c-.11.34-.4.75-.8.66a1.09,1.09,0,0,1-.64-1A8.09,8.09,0,0,1,47.22,103.63Z"/><path class="cls-1" d="M51.94,104.32c.27-.63.48-1.29.79-1.9a35.32,35.32,0,0,1,1.46,3.74,3.22,3.22,0,0,1,.32,1.82c-.53-.21-.64-.86-1.08-1.18.12,2.41.53,4.8.71,7.22.17,1.36.19,2.74.28,4.11a24.6,24.6,0,0,1-.07,4.54,8.15,8.15,0,0,1-.48,2.24,5.45,5.45,0,0,0-.37,1.25,28.16,28.16,0,0,0,2.6-1.39,10.74,10.74,0,0,0,2-1.49c.15-.11.05-.32,0-.47a8.71,8.71,0,0,0-.8-1.69,18.75,18.75,0,0,1-1.1-2.31,1.62,1.62,0,0,0-.38-.58c.09-.67.18-1.34.33-2h.14c.52.54,1,1.11,1.52,1.66.27.32.65.64.62,1.11a7,7,0,0,1-.91-.33,8.93,8.93,0,0,1,1.3,3.2,4.49,4.49,0,0,1-1.4,3.61,22.93,22.93,0,0,1-4.1,2.57,2,2,0,0,0,1.22,1.38,3.86,3.86,0,0,0,2.61-.47,14.34,14.34,0,0,0,4.87-3.87c.11-.19.33-.37.27-.61A39,39,0,0,0,60.12,117c-.14-.41-.46-.84-.29-1.29a7.49,7.49,0,0,1,.56-1.61,4,4,0,0,1,.48.68,19,19,0,0,1,1.65,3.92,32.28,32.28,0,0,1,1,5.08,6.18,6.18,0,0,0,2.8,4.4c1.86,1.19,4.17,1.22,6.31,1.2,1.4-.1,2.81-.14,4.2-.37a53,53,0,0,0,9-2.14,37.82,37.82,0,0,0,4.31-1.63c0,.49-.34,1,0,1.49a2,2,0,0,0,1.34.71,7.37,7.37,0,0,0,2.47-.29,4.77,4.77,0,0,1-2.38-2.54,4.29,4.29,0,0,1,2.1-5.41,5.71,5.71,0,0,1,4.91.11,3.29,3.29,0,0,1,1.6,1.5,5,5,0,0,0-1.77-.55,9.43,9.43,0,0,0-5.54,1.2c-.17.09-.4.19-.33.42a4.16,4.16,0,0,0,1.9,3.14,5.47,5.47,0,0,0,2.7.88,8.57,8.57,0,0,0,2-.55,28.72,28.72,0,0,1,3.85-1.12,1.59,1.59,0,0,1-.3.93,9.66,9.66,0,0,1-.52.94c-2.76.7-5.39,1.86-8.1,2.75a7.76,7.76,0,0,1-2.81.58,2.45,2.45,0,0,1-1.8-.87,3,3,0,0,1-.29-1.29,47.25,47.25,0,0,1-4.77,1.81,45.58,45.58,0,0,1-10.13,2.14,23.3,23.3,0,0,1-5.84-.11,6.68,6.68,0,0,1-4.2-2.26,7.49,7.49,0,0,1-1.49-3.51,4.54,4.54,0,0,1-1.21,2.27,15.36,15.36,0,0,1-4.11,3.28,4.24,4.24,0,0,1-2.84.6A2.25,2.25,0,0,1,53,130a5.6,5.6,0,0,1-.26-1.67,26.54,26.54,0,0,1-5.16,2c-1.65.24-3.34.09-5,.33a10.9,10.9,0,0,1-1.89.11,2.12,2.12,0,0,1,.84-.37c2.21-.71,4.5-1.19,6.66-2,1.64-.58,3.23-1.26,4.8-2a9.07,9.07,0,0,0,.52-2.16c.3-5.19-.52-10.35-1-15.51-.07-1.17-.13-2.35-.27-3.51C52.14,104.91,52,104.62,51.94,104.32Z"/><path class="cls-1" d="M57.56,103.45c.11-.36.27-.8.66-.93s.69.28.8.62a3.7,3.7,0,0,1-.09,1.81,14.68,14.68,0,0,1-.59,2.06l-.12,0-.1-.11a8.6,8.6,0,0,0,.48-2.64c0-.32-.34-.7-.69-.54s-.27.58-.44.85C57.24,104.18,57.47,103.8,57.56,103.45Z"/><path class="cls-1" d="M66,104.46c2.31-.79,4.69-1.37,7.05-2-.18.44-.34,1.06-.89,1.14-2.07.53-4.14,1.08-6.17,1.77-3,.95-6,1.94-9,3.18a15.36,15.36,0,0,0-1.46.59c.09-.35.2-.69.31-1a11.31,11.31,0,0,1,1.39-.58C60.07,106.32,63,105.39,66,104.46Z"/><path class="cls-1" d="M84.35,104.32c.28-.63.49-1.29.8-1.9a37.62,37.62,0,0,1,1.46,3.74,3.16,3.16,0,0,1,.31,1.83c-.52-.22-.63-.87-1.08-1.19.12,2.41.54,4.8.72,7.22.16,1.36.18,2.74.28,4.11a29.31,29.31,0,0,1,0,3.63,10.93,10.93,0,0,1-.68,3.39,1,1,0,0,1-.27.31,4.43,4.43,0,0,1,0-1.31c.26-4.78-.42-9.54-.91-14.28-.2-1.58-.17-3.17-.41-4.75C84.53,104.85,84.41,104.59,84.35,104.32Z"/><path class="cls-1" d="M119.3,102.63a3.17,3.17,0,0,1,1.75-.1c.55.24.63.91.65,1.44a5.47,5.47,0,0,1-.58,2.17,37.19,37.19,0,0,1-1.88,3.23,10.89,10.89,0,0,1-.77,1.26,9.82,9.82,0,0,1,1.08-2.54c.36-.76.75-1.51,1.16-2.24a2.71,2.71,0,0,0,.35-1.06c0-.34-.46-.44-.75-.45a7.56,7.56,0,0,0-2.58.44,65.85,65.85,0,0,0-6.53,2.33,24.9,24.9,0,0,0-4,2.15l1.77,1.41a2.15,2.15,0,0,1,.77.92,11.24,11.24,0,0,1-1.14-.18,49.64,49.64,0,0,0,5.11,4.83,6.47,6.47,0,0,1,1.69,2.16,4.64,4.64,0,0,1,.06,3.16,2.9,2.9,0,0,1-2.82,1.55,10.74,10.74,0,0,1-.39,2.58c-.16.74-.87,1.14-1.45,1.53a27.42,27.42,0,0,1-4,2,20.23,20.23,0,0,1-3.88,1.19,6.36,6.36,0,0,1-1.57.07c-1.64,0-3.27-.11-4.9-.1l-.32,0a2.82,2.82,0,0,1,1.25-.35,53,53,0,0,0,8.26-1.92,32.89,32.89,0,0,0,3.69-1.52,10.91,10.91,0,0,0,2.7-1.76,5.27,5.27,0,0,0-1-3,4.66,4.66,0,0,1,.25-1.73c.41.32.54.92,1,1.12a2.43,2.43,0,0,0,1.68-.08,2.31,2.31,0,0,0,1.27-.86,2.84,2.84,0,0,0-.86-1.6c-1.32-1.4-2.88-2.55-4.25-3.91a18.88,18.88,0,0,1-2.35-2.63c-.37-.51-.68-1.07-1.07-1.56-.16-.2-.09-.48-.1-.72,0-.59,0-1.19.12-1.77s.77-.83,1.2-1.16a34.56,34.56,0,0,1,6.91-3C116.33,103.4,117.82,103,119.3,102.63Z"/><path class="cls-1" d="M34.41,104.11a3.42,3.42,0,0,1,.71-1.64,1.78,1.78,0,0,1,0,.69c.68.36,1.53.75,1.67,1.6a1.8,1.8,0,0,1-1.93,2.17.83.83,0,0,1-.73-.52A4.15,4.15,0,0,1,34.41,104.11Zm.35.12a3.06,3.06,0,0,0-.23,1.18c0,.23.27.31.45.34a2.44,2.44,0,0,0,1.27-.34A3.54,3.54,0,0,0,34.76,104.23Z"/><path class="cls-1" d="M76.9,104.2c1.66-.52,3.36-.88,5-1.37-.16.46-.35,1.07-.91,1.15-2.07.54-4.15,1.09-6.18,1.79-2.72.84-5.42,1.74-8.06,2.8-.76.36-1.56.58-2.32.94.17-.42.14-1.07.69-1.2,1.39-.55,2.75-1.14,4.16-1.63C71.81,105.78,74.36,105,76.9,104.2Z"/><path class="cls-1" d="M13.24,104.79a2.86,2.86,0,0,1,.66-1.43,2.82,2.82,0,0,1,0,.71c.66.35,1.48.72,1.66,1.52a2.24,2.24,0,0,1-.59,1.83,1.9,1.9,0,0,1-1.07.4.86.86,0,0,1-1-.58A5.29,5.29,0,0,1,13.24,104.79Zm.06,1.54c0,.2.22.27.39.32a2.28,2.28,0,0,0,1.32-.33c-.29-.6-.95-.85-1.48-1.19A3.12,3.12,0,0,0,13.3,106.33Z"/><path class="cls-1" d="M81.61,106.74a1.52,1.52,0,0,1,.47-.92,7.4,7.4,0,0,1-.38,1.8,1.94,1.94,0,0,0,.09,1.55c.14.2.53.25.63,0a3.31,3.31,0,0,1,.38-.72,2.18,2.18,0,0,1-.2,1.25,1.22,1.22,0,0,1-.52.75.63.63,0,0,1-.73-.27,2,2,0,0,1-.2-1.42A15.24,15.24,0,0,1,81.61,106.74Z"/><path class="cls-1" d="M122.73,108a4.85,4.85,0,0,1,.56-1.67c.12.55-.19,1.06-.26,1.6s-.2,1.08.24,1.41c.48.16.49-.49.69-.77a1.42,1.42,0,0,1-.1,1,1.05,1.05,0,0,1-.52.75c-.37.07-.65-.28-.73-.61A4,4,0,0,1,122.73,108Z"/><path class="cls-1" d="M97.58,107.2c.39-.54,1.12-.06,1.31.41a4.58,4.58,0,0,1-.15,1c-.28-.24-.58-.76-1-.5a4.07,4.07,0,0,0-.68,2.13,4.9,4.9,0,0,1-.45,1.9c-.42-.76-.56-1.65-1-2.39l-.31,0q-.61-.27-1.2-.6c-.19-.1-.13-.34-.14-.51,0-.35,0-.8.34-1a1.07,1.07,0,0,1,1.09.46,6.69,6.69,0,0,1,1.27,2.42C96.92,109.46,96.84,108.17,97.58,107.2Z"/><path class="cls-1" d="M77.65,108.73a4.28,4.28,0,0,1,.19-1.18,13.85,13.85,0,0,0,.61,1.55,2.72,2.72,0,0,1,.36,1.64c-.08.41-.08.9-.43,1.17a.92.92,0,0,1-1.06,0,2.44,2.44,0,0,1-.74-1.14,3.08,3.08,0,0,1-.55,1.27,1.09,1.09,0,0,1-1.4.18,1.62,1.62,0,0,1-.51-1.35,5.75,5.75,0,0,1,.36-2.22,2.77,2.77,0,0,1,0,1.43,1,1,0,0,0,1.8.64,4.1,4.1,0,0,0-.39-2,4.27,4.27,0,0,1,.27-1c.57.9.45,2.08,1.09,2.94a.85.85,0,0,0,1.18.21A18.24,18.24,0,0,1,77.65,108.73Z"/><path class="cls-1" d="M49.15,108.43a1.21,1.21,0,0,1,.68-.72c.39,0,.69.3.91.58a3.2,3.2,0,0,1-.14,1.11c-.27-.25-.63-.8-1-.46-.84,1.14-.49,2.67-1,3.92l-.19-.07a12.09,12.09,0,0,0-.91-2.24l-.26.06a9.92,9.92,0,0,1-1.34-.68,2.42,2.42,0,0,1,0-1.07.51.51,0,0,1,.62-.42,2.2,2.2,0,0,1,1.14,1,9.17,9.17,0,0,1,.88,1.94A14.53,14.53,0,0,1,49.15,108.43Z"/><path class="cls-1" d="M25,108.06a11.57,11.57,0,0,1,1.16-.29,3.25,3.25,0,0,1-.58,1c-1.5.48-3,.86-4.52,1.37-1.74.58-3.5,1.11-5.19,1.84a4.13,4.13,0,0,0-1.34.79,2.05,2.05,0,0,1,.93-1.55,53,53,0,0,1,6-2.08C22.61,108.71,23.81,108.42,25,108.06Z"/><path class="cls-1" d="M114.55,109.81a2.58,2.58,0,0,1,.56-1.31,4.16,4.16,0,0,1,0,.61c.57.27,1.24.57,1.43,1.23a1.91,1.91,0,0,1-.43,1.57,1.57,1.57,0,0,1-1,.4.72.72,0,0,1-.88-.53A4.42,4.42,0,0,1,114.55,109.81Zm.37,1.48a1.91,1.91,0,0,0,1.22-.3,3.31,3.31,0,0,0-1.31-1C114.76,110.41,114.38,111.09,114.92,111.29Z"/><path class="cls-1" d="M11.37,110.18A2.81,2.81,0,0,1,12,108.8c0,1-.6,1.88-.49,2.88,0,.33.28.75.67.65s.23-.68.58-.84a3.15,3.15,0,0,1-.27,1.27,1.06,1.06,0,0,1-.55.69c-.46.12-.8-.36-.87-.76A6.52,6.52,0,0,1,11.37,110.18Z"/><path class="cls-1" d="M91.11,110.27a2.8,2.8,0,0,1,.54-1.29c.08,1-.69,2-.41,3.1.06.32.49.61.75.31s.19-.58.44-.77a3.46,3.46,0,0,1-.31,1.44c-.12.29-.36.62-.71.58a1,1,0,0,1-.69-.94A7.45,7.45,0,0,1,91.11,110.27Z"/><path class="cls-1" d="M36.45,109.56a.79.79,0,0,1,.3-.35c0,1-.63,1.91-.48,2.92,0,.33.32.71.69.56s.26-.63.5-.87a2.18,2.18,0,0,1-.2,1.25,1.08,1.08,0,0,1-.62.77c-.4.07-.7-.31-.8-.65a3.93,3.93,0,0,1,.1-1.8C36.1,110.78,36.23,110.16,36.45,109.56Z"/><path class="cls-1" d="M69.77,110.69a3,3,0,0,1,.56-1.33c.08,1-.55,1.81-.47,2.77,0,.36.22.86.65.77s.23-.71.61-.85a3.81,3.81,0,0,1-.35,1.44c-.12.3-.4.63-.76.53a1.09,1.09,0,0,1-.63-1A8.2,8.2,0,0,1,69.77,110.69Z"/><path class="cls-1" d="M56.78,111.08a3.61,3.61,0,0,1,.55-1.38,2.43,2.43,0,0,1-.19,1.27,4.2,4.2,0,0,0-.24,1.72c0,.32.33.66.68.53s.26-.62.51-.86a2.54,2.54,0,0,1-.24,1.35c-.11.32-.37.73-.77.66a1,1,0,0,1-.67-1A7.79,7.79,0,0,1,56.78,111.08Z"/><path class="cls-1" d="M65.7,111.15a1.22,1.22,0,0,1,.67-.72c.4,0,.7.3.92.58a3.2,3.2,0,0,1-.14,1.11c-.27-.23-.54-.72-1-.52a3.26,3.26,0,0,0-.65,1.77,9.12,9.12,0,0,1-.43,2.2l-.18,0a13.29,13.29,0,0,0-.92-2.25l-.26.06a9.36,9.36,0,0,1-1.34-.68,2.42,2.42,0,0,1,0-1.07.51.51,0,0,1,.62-.42,2.2,2.2,0,0,1,1.14,1,8.66,8.66,0,0,1,.87,1.94A14.55,14.55,0,0,1,65.7,111.15Z"/><path class="cls-1" d="M24.78,112.24a2.3,2.3,0,0,1,.55-1.24c0,1-.62,1.92-.47,2.94,0,.32.3.69.66.58s.23-.67.55-.86a2.87,2.87,0,0,1-.26,1.34c-.11.33-.4.74-.8.65a1.08,1.08,0,0,1-.64-1A8.1,8.1,0,0,1,24.78,112.24Z"/><path class="cls-1" d="M119.42,114c1.92-.74,3.84-1.47,5.8-2.09a2.72,2.72,0,0,1-.43.87c-1.2.47-2.44.85-3.65,1.34s-2.18.82-3.24,1.3a9.07,9.07,0,0,0-2.38,1.32,3.87,3.87,0,0,1,.34-1,1.84,1.84,0,0,1,.86-.61C117.61,114.72,118.5,114.31,119.42,114Z"/><path class="cls-1" d="M105,113.42a2.65,2.65,0,0,1,.58-1.36c0,.2,0,.4,0,.61.57.28,1.28.59,1.44,1.28a1.89,1.89,0,0,1-.48,1.56,1.63,1.63,0,0,1-.89.36.75.75,0,0,1-.89-.48A3.93,3.93,0,0,1,105,113.42Zm.28.16a2.45,2.45,0,0,0-.15,1.1c.4.4,1,.1,1.46-.12A3,3,0,0,0,105.31,113.58Z"/><path class="cls-1" d="M44.42,112.23a15.61,15.61,0,0,1,1.75,1.27,12.31,12.31,0,0,1-.9,1.82c-.51-.32-1-.71-1.47-1-.1-.08-.3-.16-.22-.33A15.2,15.2,0,0,1,44.42,112.23Z"/><path class="cls-1" d="M98.68,113.63a4,4,0,0,1,.58-1.55,2.33,2.33,0,0,1-.19,1.27,4.22,4.22,0,0,0-.23,1.72c0,.32.32.66.67.53s.26-.62.52-.86a2.1,2.1,0,0,1-.19,1.18c-.1.33-.27.73-.64.83s-.76-.4-.83-.79A6,6,0,0,1,98.68,113.63Z"/><path class="cls-1" d="M76.19,115.42a15.46,15.46,0,0,1,.66-2,5.33,5.33,0,0,1,.37.85,27.49,27.49,0,0,1,1,3.75c.17,1,.4,1.91.64,2.86a3.2,3.2,0,0,0,1.31,2,2.39,2.39,0,0,0,2.75-.29,32.43,32.43,0,0,0-1.79-4.52c-.41-.85-.48-1.81-.91-2.65a7.42,7.42,0,0,1,.43-1.92c.51.53,1,1.12,1.42,1.69.23.32.55.62.55,1-.38,0-.67-.25-1-.37.6,2,2,3.77,2,5.92a4.51,4.51,0,0,1-.86,2.74,2,2,0,0,1-1.5.69A2.49,2.49,0,0,1,78.93,124a9.59,9.59,0,0,1-1.08-3.14c-.19.56-.24,1.16-.43,1.72a4.31,4.31,0,0,1-2,2.64,2.54,2.54,0,0,1-3.93-1.56,10,10,0,0,1-.15-3.89,8.2,8.2,0,0,0,0-2,13.92,13.92,0,0,0-1.81,4.71,7.59,7.59,0,0,1-1.34,3,1.07,1.07,0,0,1-1.45-.11,4.82,4.82,0,0,1-1.17-1.89,15,15,0,0,1-.64-3.94,7.54,7.54,0,0,1,.28-3,4,4,0,0,1,.13,1.42,21.63,21.63,0,0,0,.36,3.67,4.41,4.41,0,0,0,1,1.94.89.89,0,0,0,1.18.13,2.9,2.9,0,0,0,.63-.84c.84-1.73,1.09-3.69,2-5.41a4.82,4.82,0,0,1,1.3-1.87,1.22,1.22,0,0,1,.42.89c.15,1.48-.32,2.95-.19,4.43a3.36,3.36,0,0,0,.64,2.06,1.86,1.86,0,0,0,1.85.67,2.93,2.93,0,0,0,2.26-1.49,5.64,5.64,0,0,0,.14-3.63C76.79,117.43,76.37,116.45,76.19,115.42Z"/><path class="cls-1" d="M50.44,114.93a3.4,3.4,0,0,1,.54-1.37,2.3,2.3,0,0,1-.19,1.26,4.23,4.23,0,0,0-.24,1.72c.05.32.33.67.68.54s.26-.63.51-.86a2.43,2.43,0,0,1-.24,1.34c-.11.32-.37.73-.76.67a1,1,0,0,1-.68-1A7.59,7.59,0,0,1,50.44,114.93Z"/><path class="cls-1" d="M45.53,116.43a13.31,13.31,0,0,1,.85-1.79c.62.41,1.23.83,1.84,1.26a11.8,11.8,0,0,1-.9,1.86c-.6-.39-1.18-.81-1.77-1.22-.27.6-.58,1.18-.87,1.76-.63-.43-1.28-.84-1.87-1.33a15.2,15.2,0,0,1,.85-1.83C44.28,115.57,44.9,116,45.53,116.43Z"/><path class="cls-1" d="M14,115.87c.15-.22.37-.49.67-.46a1.32,1.32,0,0,1,.79.6,3.34,3.34,0,0,1-.15,1.09c-.26-.23-.59-.77-1-.47a4.51,4.51,0,0,0-.69,2.25,4,4,0,0,1-.43,1.73,1.75,1.75,0,0,1-.32-.69,8.6,8.6,0,0,0-.7-1.66,1.67,1.67,0,0,1-.31,0,14.14,14.14,0,0,1-1.34-.69,2.5,2.5,0,0,1,.18-1.3c.24-.33.71-.16,1,.05a5.88,5.88,0,0,1,1.54,2.71A11.35,11.35,0,0,1,14,115.87Z"/><path class="cls-1" d="M123.32,115.61c.51-.17,1,.25,1.25.64a5.21,5.21,0,0,1,.7,2.68,2.65,2.65,0,0,1-.67,1.5,4.44,4.44,0,0,1-1.67-.4,6,6,0,0,1-1.87-1.09,13.09,13.09,0,0,0-2.54,2c.12,1.06,1,1.93.92,3a4.24,4.24,0,0,1-.85,2.6,11.42,11.42,0,0,1-2.07,1.66,25.13,25.13,0,0,1-2.8,1.62A17.22,17.22,0,0,1,110,131.4c-1.42.26-2.87.22-4.29.5a4.9,4.9,0,0,1-1.52.13c1-.51,2.2-.81,3.29-1.22a43.08,43.08,0,0,0,6.8-2.94,24.67,24.67,0,0,0,2.93-1.72,6.78,6.78,0,0,0,1.68-1.43c-.35-1.08-1.05-2.1-1-3.29a3.59,3.59,0,0,1,1-2.53,21.72,21.72,0,0,1,2.69-1.85C122.14,116.54,122.58,115.85,123.32,115.61Zm-1,2.15a7.71,7.71,0,0,0,2,.87,2.14,2.14,0,0,0-1-1.34C122.89,117.14,122.53,117.49,122.27,117.76Z"/><path class="cls-1" d="M88.68,117.21a3.23,3.23,0,0,1,.71-1.61,4.21,4.21,0,0,1,0,.71c.65.35,1.47.72,1.65,1.52a2.24,2.24,0,0,1-.59,1.83,1.78,1.78,0,0,1-1.07.4.84.84,0,0,1-1-.58A4.55,4.55,0,0,1,88.68,117.21Zm.1,1.36c0,.2.23.27.39.32a2.26,2.26,0,0,0,1.32-.33c-.29-.6-.94-.85-1.48-1.19A3.16,3.16,0,0,0,88.78,118.57Z"/><path class="cls-1" d="M108.37,117.73a10.09,10.09,0,0,1,.71-1.61c.52.31,1,.68,1.52,1a11.62,11.62,0,0,1-.72,1.61C109.36,118.42,108.88,118,108.37,117.73Z"/><path class="cls-1" d="M74.19,118.05a3,3,0,0,1,.56-1.32c.08,1-.55,1.81-.47,2.77,0,.36.22.86.65.77s.23-.71.61-.85a3.94,3.94,0,0,1-.34,1.43c-.12.3-.4.64-.76.54a1.1,1.1,0,0,1-.64-1A8.21,8.21,0,0,1,74.19,118.05Z"/><path class="cls-1" d="M22.89,118c.6.39,1.17.82,1.75,1.25a13,13,0,0,1-.9,1.84c-.56-.36-1.07-.78-1.62-1.15-.17-.07-.05-.27,0-.39C22.35,119,22.61,118.52,22.89,118Z"/><path class="cls-1" d="M39.19,119.52c.11-.36.16-.8.51-1,0,1-.63,1.91-.49,2.92,0,.33.33.71.7.56s.25-.62.5-.87a2.43,2.43,0,0,1-.24,1.34c-.1.33-.37.76-.78.69a1.09,1.09,0,0,1-.67-1A9.54,9.54,0,0,1,39.19,119.52Z"/><path class="cls-1" d="M5.78,120.15a3.4,3.4,0,0,1,.55-1.38A2.5,2.5,0,0,1,6.14,120a4.25,4.25,0,0,0-.24,1.73c0,.31.32.66.67.53s.26-.62.52-.86a2.42,2.42,0,0,1-.25,1.34c-.11.33-.36.73-.76.67a1.06,1.06,0,0,1-.68-1A7.79,7.79,0,0,1,5.78,120.15Z"/><path class="cls-1" d="M19.69,120.34a3.27,3.27,0,0,1,.55-1.35A3.11,3.11,0,0,1,20,120.4a3.31,3.31,0,0,0-.16,1.73c.08.3.46.56.73.31s.18-.6.46-.77a3.28,3.28,0,0,1-.31,1.4c-.11.32-.41.7-.8.58a1.12,1.12,0,0,1-.62-1.09A8.84,8.84,0,0,1,19.69,120.34Z"/><path class="cls-1" d="M106.78,120.72a2.28,2.28,0,0,1,.46-1.16c0,.86-.49,1.66-.34,2.54,0,.27.27.58.58.48s.23-.56.46-.77a2.91,2.91,0,0,1-.25,1.27c-.1.25-.32.54-.62.47a.92.92,0,0,1-.58-.88A6.82,6.82,0,0,1,106.78,120.72Z"/><path class="cls-1" d="M121.92,122.71a2.61,2.61,0,0,1,.44-1.15c.09.73-.34,1.4-.34,2.13,0,.33,0,.84.44.89s.29-.61.64-.73a3.48,3.48,0,0,1-.27,1.23c-.1.27-.38.58-.69.45a1,1,0,0,1-.52-.93A7.17,7.17,0,0,1,121.92,122.71Z"/><path class="cls-1" d="M16.89,123.65a1.07,1.07,0,1,1-.77.84A1.07,1.07,0,0,1,16.89,123.65Z"/><path class="cls-1" d="M15.05,125.43a1.07,1.07,0,0,1,1.43.76,1.07,1.07,0,1,1-2.11.22A1.05,1.05,0,0,1,15.05,125.43Z"/><path class="cls-1" d="M123.18,127.36c.33-.43.9,0,1.1.32a4.06,4.06,0,0,1-.11.92c-.24-.2-.48-.61-.84-.43-.78,1-.37,2.4-.89,3.5-.39-.63-.52-1.38-.91-2a2.5,2.5,0,0,1-1.44-.55,1.8,1.8,0,0,1,.12-1.1c.21-.29.61-.14.84,0a5.21,5.21,0,0,1,1.37,2.26C122.62,129.32,122.53,128.2,123.18,127.36Z"/><path class="cls-1" d="M42.24,128c.84-.22,1.65-.53,2.5-.68-.22.39-.35,1-.85,1.08q-3,.84-6,1.84a36.42,36.42,0,0,0-3.82,1.42,3.18,3.18,0,0,0-1,.66,2,2,0,0,1,1-1.59A46.63,46.63,0,0,1,38.93,129C40,128.69,41.12,128.3,42.24,128Z"/><path class="cls-1" d="M9.32,128.3a1.18,1.18,0,0,1,.37-.6c0,1-.6,1.89-.48,2.9,0,.34.3.73.69.61s.25-.63.52-.86a2.25,2.25,0,0,1-.21,1.22,1.19,1.19,0,0,1-.55.76A.66.66,0,0,1,8.9,132a2.41,2.41,0,0,1-.1-1.57A21.26,21.26,0,0,1,9.32,128.3Z"/><path class="cls-1" d="M24.64,129.58c.4-.2.39-.89.91-.87a.31.31,0,0,1,.38.41c-.14.54-.77.65-1.2.89l.4.26a1.91,1.91,0,0,1-1.76,1.49,2.05,2.05,0,0,1,.36.24.64.64,0,0,1-.44.65,6.43,6.43,0,0,1-1.47.46c-.15,0-.22-.15-.32-.22-.42.19-.94.46-1.39.22s-.19-.76-.08-1.11a2.11,2.11,0,0,1-1.17,0,.6.6,0,0,1-.22-.57,2.13,2.13,0,0,1,1.08-1.65.77.77,0,0,1,1,.15c.33.35.17.87.1,1.29l.59-.19c.25-.49.41-1.15,1-1.36.34.15.36.57.47.88a.51.51,0,0,1-.11.56,11.35,11.35,0,0,1-1.22.47,4,4,0,0,0-.37.54c0-.13-.07-.26-.11-.39l-.68.2c0,.23-.12.63.22.66a3.68,3.68,0,0,0,1.36-.37l.18.32a4.82,4.82,0,0,0,.61-.2c.22-.34.26-.83.63-1.07a8.88,8.88,0,0,0,1.24-.49c-.26,0-.52-.06-.77-.11A2,2,0,0,1,24.64,129.58Zm-5.28.95c-.2.2-.52.49-.3.78a2.17,2.17,0,0,0,1.4,0,.79.79,0,0,0-.07-.86C20.13,130.09,19.62,130.29,19.36,130.53Zm2.4.34.6-.21c-.06-.13-.13-.25-.2-.37A3.32,3.32,0,0,0,21.76,130.87Z"/><path class="cls-1" d="M61.85,130a2.69,2.69,0,0,1,.55-1.27c.06.93-.53,1.77-.48,2.71,0,.38.21.92.67.82.29-.21.3-.61.5-.89.22.43-.06.87-.17,1.28s-.34.77-.75.75a1,1,0,0,1-.72-.94A8,8,0,0,1,61.85,130Z"/><path class="cls-1" d="M84.21,130.35c.6.39,1.18.82,1.75,1.25a12.47,12.47,0,0,1-.91,1.83c-.59-.39-1.14-.84-1.73-1.23A13.09,13.09,0,0,1,84.21,130.35Z"/><path class="cls-1" d="M19.67,130.46l.48.17a4.3,4.3,0,0,1-.27.62l-.49-.19A5.38,5.38,0,0,1,19.67,130.46Z"/><path class="cls-1" d="M39.84,135.64a.94.94,0,0,1,1-.59c.6.39.51,1.23.33,1.83l.54.28a2.74,2.74,0,0,1-.3.78c-.2.06-.38-.13-.57-.17A8,8,0,0,1,37.56,141a1.67,1.67,0,0,1-.48.15,23.29,23.29,0,0,0,3.46-3.49c-.38-.18-.92-.29-1-.76A2.15,2.15,0,0,1,39.84,135.64Zm.11.59a1.94,1.94,0,0,0,.85.48,1.24,1.24,0,0,0-.24-.68C40.33,135.91,40.13,136.11,40,136.23Z"/><path class="cls-1" d="M46.56,135.57a.92.92,0,0,1,1-.52c.6.39.5,1.23.32,1.83l.55.28a2.74,2.74,0,0,1-.3.78c-.2.06-.38-.13-.57-.17A8,8,0,0,1,44.25,141a1.67,1.67,0,0,1-.48.15,23.71,23.71,0,0,0,3.45-3.49c-.38-.18-.91-.29-1-.76A2.21,2.21,0,0,1,46.56,135.57Zm.08.66a1.94,1.94,0,0,0,.85.48,1.24,1.24,0,0,0-.24-.68C47,135.91,46.81,136.11,46.64,136.23Z"/><path class="cls-1" d="M94.92,136.21a.93.93,0,0,1,1-.59c.6.39.51,1.23.33,1.82l.54.29a2.55,2.55,0,0,1-.29.77c-.2.07-.39-.12-.58-.17a7.85,7.85,0,0,1-3.27,3.19,1.54,1.54,0,0,1-.47.16,23.71,23.71,0,0,0,3.45-3.49c-.38-.18-.91-.29-1-.76A2.21,2.21,0,0,1,94.92,136.21Zm.11.58a1.9,1.9,0,0,0,.86.49,1.29,1.29,0,0,0-.25-.69C95.41,136.48,95.21,136.67,95,136.79Z"/><path class="cls-1" d="M27.35,136.63c.22-.27.52,0,.74.14,0,.19-.05.38-.07.58-.2-.07-.48-.39-.66-.13A7.23,7.23,0,0,0,27,139a1.62,1.62,0,0,1,.82.61c.15.19,0,.42,0,.63a2.54,2.54,0,0,0-1.39.3c-.19.12-.14.37-.08.54a27.26,27.26,0,0,1,1,3.17,2.64,2.64,0,0,1,0,1.25c-.12-.36-.09-.76-.2-1.13a27.17,27.17,0,0,0-.9-2.63,2,2,0,0,1,0-1.51c.18-.38.63-.4.95-.58a1.91,1.91,0,0,0-.71.1,3.54,3.54,0,0,1,.34-.77,6.24,6.24,0,0,0-.35-.94c-.3-.19-.65-.27-.95-.46a1.32,1.32,0,0,1,.06-.76.64.64,0,0,1,.67.2A3.4,3.4,0,0,1,27,138.4,4.08,4.08,0,0,1,27.35,136.63Z"/><path class="cls-1" d="M87,137.35c.55-.21,1-.59,1.58-.8.2-.07.52,0,.54.25a3,3,0,0,1-.36,1.3,2.84,2.84,0,0,1-.52,1,5.29,5.29,0,0,1,.49-1.63c-.63,0-1.11.46-1.66.7a3.25,3.25,0,0,1-1.91.33,3.53,3.53,0,0,1-.4,2.24,4.1,4.1,0,0,0,0-2,6.06,6.06,0,0,0-.64-1.1,2.37,2.37,0,0,1,.17-.83,5.48,5.48,0,0,0,.59.59A2.45,2.45,0,0,0,87,137.35Z"/><path class="cls-1" d="M56.41,137.59a8.22,8.22,0,0,1,1.37-.39,2.54,2.54,0,0,1-.43.77c-1.87.53-3.67,1.29-5.49,2-.83.34-1.65.68-2.44,1.08a1.55,1.55,0,0,0-.55.53c.09-.53.28-1.17.85-1.36C51.89,139.2,54.15,138.37,56.41,137.59Z"/><path class="cls-1" d="M67.16,138a14.6,14.6,0,0,1,2-.55c-.14.32-.28.76-.67.85a56.28,56.28,0,0,0-5.51,2A10,10,0,0,0,59.87,142a2.08,2.08,0,0,1,1-1.43A47.3,47.3,0,0,1,67.16,138Z"/><path class="cls-1" d="M35.58,137.72c.16-.24.48-.12.63.06s0,.48,0,.72a1.74,1.74,0,0,0-.5-.31c-.64.62-.3,1.64-.68,2.39-.2-.45-.34-.91-.58-1.34a2.26,2.26,0,0,1-1-.37c0-.29-.07-.91.4-.82.66.25.89,1,1.16,1.61A4.77,4.77,0,0,1,35.58,137.72Z"/><path class="cls-1" d="M79.1,140.89a3.84,3.84,0,0,1,.18-2.67c.09.37,0,.78.14,1.13s.32.34.5.49c0,.46-.27.92-.12,1.39.29,1.37.65,2.73.85,4.13a4.07,4.07,0,0,1-.38,2.66c-.16-.46.08-.92,0-1.39a32.74,32.74,0,0,0-.76-3.9C79.39,142.12,79.28,141.5,79.1,140.89Z"/><path class="cls-1" d="M103,142.3a6,6,0,0,1-.26-4,3.48,3.48,0,0,0,.19,1c.12.24.34.4.46.64a7.51,7.51,0,0,1-.17,1c.25,1,.64,2,.87,3a3.94,3.94,0,0,1-.18,2.6c-.21.38-.7.2-1,.05-.54-.19-.71-.79-.89-1.27a1.84,1.84,0,0,1-.69,1.27,1.32,1.32,0,0,1-1.27.14,2,2,0,0,1-.71-1,11.37,11.37,0,0,1-4,1.65,6.48,6.48,0,0,1-3.85-.2,3,3,0,0,1-.77,2.52,10.27,10.27,0,0,1-3.49,2.27,10.68,10.68,0,0,1-3.18.51c-.42,0-.83.13-1.25.14a2,2,0,0,1,.9-.41A23.45,23.45,0,0,0,87.47,151a12.31,12.31,0,0,0,2.91-1.75,4,4,0,0,0,.83-.91,3.19,3.19,0,0,0-.77-2c-.36-.37-.1-.91-.07-1.36.32.28.49.68.79,1a4.83,4.83,0,0,0,3.07.6A11.52,11.52,0,0,0,99,145a3.88,3.88,0,0,1-.25-1.65c.09-.48.12-1,.54-1.37.19-.16.43,0,.57.13a2.37,2.37,0,0,1,0,3.31,1.14,1.14,0,0,0,2-.51,3.08,3.08,0,0,0-.19-.94c-.32-1.36-.56-2.73-.89-4.09a1.91,1.91,0,0,1,.13-1.46,17.76,17.76,0,0,1,.55,2.29c.31,1.37.55,2.76,1,4.1a1.25,1.25,0,0,0,.86.84c.19.06.61.2.58-.14A22,22,0,0,0,103,142.3Zm-3.47.78a1.67,1.67,0,0,0-.33.5,7,7,0,0,0,.36,1.09,6.35,6.35,0,0,0,.65-.62A1.69,1.69,0,0,0,99.51,143.08Z"/><path class="cls-1" d="M76,140.73a3.58,3.58,0,0,1,.13-2.33,9.49,9.49,0,0,0,.24,1.18,3.38,3.38,0,0,0,.45.62c.06.48-.19.94-.08,1.41.22,1.28.59,2.51.8,3.79a4.48,4.48,0,0,1-.2,2.35,1.83,1.83,0,0,1-.92.56,1.18,1.18,0,0,1-1.31-.22,3.62,3.62,0,0,1-.47-1.48c-.8.33-1.65.52-2.48.81a23.27,23.27,0,0,1-6.47,1.09,6.79,6.79,0,0,1-3.41-.69,3.15,3.15,0,0,1-.89,2.44,14.54,14.54,0,0,1-3.64,1.91,8.31,8.31,0,0,1-2.25.54c-1,.07-2.08,0-3.11.13-.15,0-.28-.06-.4-.12a13.84,13.84,0,0,1,1.69-.4A21.85,21.85,0,0,0,59,150.63a9.16,9.16,0,0,0,2.87-1.82,3.74,3.74,0,0,0-.43-1.71,3.81,3.81,0,0,1-.29-.57,5.25,5.25,0,0,1,.19-1.05,4.37,4.37,0,0,0,.9,1.06,6.72,6.72,0,0,0,3.87.8,24.06,24.06,0,0,0,6.29-1.09c.87-.3,1.77-.49,2.61-.85a1.7,1.7,0,0,0-1.08-.65,10.09,10.09,0,0,0-2.66.45,21.35,21.35,0,0,1-5.94.73c-.41-.08-.93-.16-1.14-.57a1.3,1.3,0,0,1,.08-.8A4.1,4.1,0,0,1,66,142.31a4.29,4.29,0,0,1,2.14-1c.59.25.12.91,0,1.32-.18-.07-.34-.28-.55-.2a5.07,5.07,0,0,0-1.52.77,4.85,4.85,0,0,0-1.37,1.3,4.52,4.52,0,0,0,2.44.31,27.91,27.91,0,0,0,4.54-.74,9.62,9.62,0,0,1,2.6-.38,1.59,1.59,0,0,1,1.36,1.59,1.83,1.83,0,0,1-.65,1.25c.13.26.25.58.56.67a2.21,2.21,0,0,0,1.61-.33,14.85,14.85,0,0,0-.4-2.37C76.44,143.25,76.25,142,76,140.73Z"/><path class="cls-1" d="M41.24,138.62a9.26,9.26,0,0,1,.43,1.89,38,38,0,0,0,.95,4.48,1.78,1.78,0,0,0,1.53,1.39,2.21,2.21,0,0,1-.18-1.74c.19-.47.34-1.06.83-1.32.15-.13.35,0,.53,0a2.07,2.07,0,0,0,1.48-.23c.2-.17.31-.43.52-.6-.11.75-.4,1.69-1.23,1.9-.53.2-1.07,0-1.61,0a1.39,1.39,0,0,0,.72,1.41c.21.14.45,0,.66-.06a7.17,7.17,0,0,0,1.81-1.33A1.84,1.84,0,0,1,47,146a6.75,6.75,0,0,1-2.66,1.46,1.49,1.49,0,0,1-1.49-.46,4.09,4.09,0,0,1-.81-1.8A2,2,0,0,1,41,146.53a3.6,3.6,0,0,1-1.1,2.75A12.34,12.34,0,0,1,37,151a9.4,9.4,0,0,1-3.21.83,20.92,20.92,0,0,1-2.09.12,1.72,1.72,0,0,1,.37-.22,31.48,31.48,0,0,0,6.17-2.34,8,8,0,0,0,2.1-1.51c.3-.3.07-.74,0-1.09a2,2,0,0,1-1.74.12.9.9,0,0,1-.37-.84,2.22,2.22,0,0,1,.89-1.83c.22-.14.45.05.63.17a2.84,2.84,0,0,1,.92,1.19c.44-.22,1-.41,1.19-.88-.3-1.66-.67-3.31-.87-5A3.44,3.44,0,0,1,41.24,138.62Zm-2.5,7.1a3.56,3.56,0,0,0,.72.23c0-.15.07-.3.1-.46l-.41-.13A1.42,1.42,0,0,0,38.74,145.72Z"/><path class="cls-1" d="M87.16,142.16a4.6,4.6,0,0,1-.07-3.51c0,.27,0,.54,0,.82a2.67,2.67,0,0,0,.62.87c0,.36-.11.72-.17,1.08a41.57,41.57,0,0,1,1.23,4.76,3,3,0,0,1-.28,2c-.09-.46,0-.94-.09-1.4A39.41,39.41,0,0,0,87.16,142.16Z"/><path class="cls-1" d="M71.41,140.38a4.9,4.9,0,0,1,.51-1.64c0,.71-.43,1.38-.23,2.09,0,.21.25.25.42.32a5.19,5.19,0,0,1,.37-.65,2.47,2.47,0,0,1-.26,1.1.39.39,0,0,1-.57.19C71.23,141.46,71.34,140.85,71.41,140.38Z"/><path class="cls-1" d="M98.42,139.17l1.12.68a4.83,4.83,0,0,1-.43,1.05c-.34-.17-.65-.39-1-.57C97.89,139.94,98.29,139.53,98.42,139.17Z"/><path class="cls-1" d="M96.44,140.55a9.41,9.41,0,0,1,.47-1c.33.17.66.34,1,.54.23.38-.2.77-.32,1.13C97.18,141,96.81,140.77,96.44,140.55Z"/><path class="cls-1" d="M82.29,141.18a3.55,3.55,0,0,1,.47-1.36c0,.68-.4,1.32-.27,2,0,.21.24.44.46.34s.21-.4.35-.59a2.06,2.06,0,0,1-.37,1.25c-.21.24-.57,0-.67-.22A2.58,2.58,0,0,1,82.29,141.18Z"/><path class="cls-1" d="M90.05,140.05a2.22,2.22,0,0,1,1.24.69,1.54,1.54,0,0,1-.11,1.13,1.25,1.25,0,0,1-1.45.79c-.34-.19-.3-.66-.25-1A3.29,3.29,0,0,1,90.05,140.05Zm-.16.93a.77.77,0,0,0,0,.72c.34.2.75,0,1.07-.16A2.73,2.73,0,0,0,89.89,141Z"/><path class="cls-1" d="M31.69,141.52a3.92,3.92,0,0,1,.44-1.34c0,.66-.36,1.26-.26,1.92a.44.44,0,0,0,.46.44c.15-.2.22-.43.37-.63a2.36,2.36,0,0,1-.34,1.22c-.19.27-.57.11-.68-.14A2.38,2.38,0,0,1,31.69,141.52Z"/><path class="cls-1" d="M54.35,142.35A4,4,0,0,1,54.8,141c.06.66-.36,1.26-.26,1.92a.43.43,0,0,0,.45.44c.15-.19.23-.43.38-.63a2.33,2.33,0,0,1-.34,1.22c-.19.27-.57.12-.68-.13A2.29,2.29,0,0,1,54.35,142.35Z"/><path class="cls-1" d="M94.55,143.34A4.55,4.55,0,0,1,95,141.8c0,.71-.42,1.38-.23,2.09,0,.21.26.25.42.32a6.84,6.84,0,0,1,.37-.65,2.34,2.34,0,0,1-.31,1.18.38.38,0,0,1-.64,0A1.83,1.83,0,0,1,94.55,143.34Z"/><path class="cls-1" d="M57.76,143.11a3.44,3.44,0,0,1,.15-1.06,1.91,1.91,0,0,0,.47.77c.34.24.06.7.21,1a4.5,4.5,0,0,1,.57,1.76,2,2,0,0,1-.47,1.64c-.21.27-.59.28-.82.5a5.11,5.11,0,0,1,0,1.83c-.35.15-.75-.1-1.06-.28a2.1,2.1,0,0,1-.74-1.67,4,4,0,0,1-1.43,1.87,14.26,14.26,0,0,1-3.94,1.72,13.52,13.52,0,0,1-3.69.51,11.52,11.52,0,0,1-2.19.14,1.76,1.76,0,0,1,.57-.27c1.14-.34,2.32-.56,3.47-.86a24.12,24.12,0,0,0,4.68-1.66,5.14,5.14,0,0,0,2-1.41,5.29,5.29,0,0,0,.74-1.53,1.88,1.88,0,0,0,1.57.42c.36-.1.81-.24,1-.61A28,28,0,0,1,57.76,143.11Zm-1.32,4.39a1.43,1.43,0,0,0,1,.95A1.83,1.83,0,0,0,56.44,147.5Z"/><path class="cls-1" d="M50.32,143.18a.61.61,0,0,1,.76-.2,2.43,2.43,0,0,1,1.08,1.75,4.09,4.09,0,0,1-.36,2.2,2,2,0,0,1-.89.92,22.81,22.81,0,0,1-4.24,2,8,8,0,0,1-1.93.47c-1,.11-2.06.22-3.1.29a1.05,1.05,0,0,1-.43-.07,15.49,15.49,0,0,1,2.14-.63,32.59,32.59,0,0,0,5.81-2.12,14.26,14.26,0,0,0,2.37-1.36c.43-.31.23-.91.1-1.33-.15.25-.29.54-.6.62a.92.92,0,0,1-1.24-.79A2.57,2.57,0,0,1,50.32,143.18Zm0,1.31a6,6,0,0,0,.61.15c0-.1.07-.3.1-.4l-.35-.17A3.62,3.62,0,0,0,50.32,144.49Z"/><path class="cls-1" d="M35.91,144c.12-.17.36-.39.58-.23a1.78,1.78,0,0,1,.73,1.55,3.18,3.18,0,0,1-.4,1.41,3.08,3.08,0,0,1-.94.74l0,.47-.23-.33a6.2,6.2,0,0,1-4.7.63,3,3,0,0,1-1.49-1.65A3.38,3.38,0,0,0,28,148.41c-.24.5-.5,1.15-1.11,1.27a1.36,1.36,0,0,1-1.1-1,5.64,5.64,0,0,1-.2-3l.14-.15A6.16,6.16,0,0,0,26,148c.2.37.67.74,1.09.49a2.94,2.94,0,0,0,.86-1.3,3.4,3.4,0,0,1,1.29-1.65c.13-.06.36-.16.45,0a5,5,0,0,0,.76,1.17,3,3,0,0,0,2,.64,7.69,7.69,0,0,0,3-.72A5,5,0,0,1,35.91,144Zm.23,1a2.29,2.29,0,0,0-.4,1.53,4.52,4.52,0,0,0,1.1-.74,2.79,2.79,0,0,0-.31-.68C36.44,144.93,36.28,144.76,36.14,144.94Z"/><path class="cls-1" d="M85.84,144.4a2,2,0,0,0,.63,1c-.2.77.54,1.32.55,2.06a2.11,2.11,0,0,1-.43,1.64,8,8,0,0,1-2.18,1.45,6.22,6.22,0,0,1-3.76.86,2.3,2.3,0,0,1-1.34-.7,3.23,3.23,0,0,1-.75-3,3.71,3.71,0,0,1,.61-1.75c.06.52-.26,1-.3,1.51a2.41,2.41,0,0,0,1.39,2.6,4.87,4.87,0,0,0,3.66-.37,9.64,9.64,0,0,0,2.8-1.73c-.33-.89-1.06-1.68-1-2.69A2.89,2.89,0,0,1,85.84,144.4Z"/><path class="cls-1" d="M83.3,146.15l1,.61a7.67,7.67,0,0,1-.45,1.06c-.33-.2-.65-.42-1-.65C83,146.83,83.15,146.48,83.3,146.15Z"/><path class="cls-1" d="M59.77,148.36c.13-.32.26-.64.41-1l1,.61a5.69,5.69,0,0,1-.44,1c-.33-.17-.65-.39-1-.59a4.87,4.87,0,0,1-.48,1c-.33-.17-.65-.38-1-.57.13-.35.28-.69.44-1Z"/><path class="cls-1" d="M102.27,148.78c.87-.29,1.71-.69,2.6-.93a1.7,1.7,0,0,1-.47.81c-.91.33-1.8.7-2.71,1a6.73,6.73,0,0,0-1.37.74,1.83,1.83,0,0,1,.55-1A5.92,5.92,0,0,1,102.27,148.78Z"/><path class="cls-1" d="M96,150.36a4.62,4.62,0,0,1,.51-1.64c0,.7-.43,1.37-.24,2.08,0,.22.26.26.44.32a3.41,3.41,0,0,1,.35-.65,2.41,2.41,0,0,1-.26,1.11.38.38,0,0,1-.56.19C95.82,151.43,95.93,150.82,96,150.36Z"/><path class="cls-1" d="M30.31,150.37c1.25-.53,2.53-1,3.81-1.51-.13.32-.21.76-.58.9l-2,.8a7.28,7.28,0,0,0-2,1.06A1.6,1.6,0,0,1,30.31,150.37Z"/><path class="cls-1" d="M66.9,150.94a4.34,4.34,0,0,1,.49-1.54c0,.71-.43,1.37-.24,2.08,0,.22.26.26.43.33a6.77,6.77,0,0,1,.36-.65,2.21,2.21,0,0,1-.31,1.17.37.37,0,0,1-.63,0A1.81,1.81,0,0,1,66.9,150.94Z"/><path class="cls-1" d="M72.63,149.63c.16-.25.49-.14.64.05s0,.49.06.72a2.25,2.25,0,0,0-.51-.31c-.63.63-.29,1.64-.68,2.39a8,8,0,0,0-.57-1.26,7.34,7.34,0,0,1-1-.45c0-.29-.06-.91.4-.82.66.25.9,1,1.16,1.6A4.82,4.82,0,0,1,72.63,149.63Z"/><path class="cls-1" d="M61.22,152c1-.35,1.9-.78,2.89-1a3.09,3.09,0,0,1-.43.8,23.07,23.07,0,0,0-3.79,1.61,2.15,2.15,0,0,1,.43-.9A2.65,2.65,0,0,1,61.22,152Z"/><path class="cls-1" d="M47.3,153c1-.36,2-.63,3-.93a1.63,1.63,0,0,1-.51.83,39.82,39.82,0,0,0-4,1.32,3.28,3.28,0,0,1,.35-.79A5.9,5.9,0,0,1,47.3,153Z"/><path class="cls-1" d="M78,153.37a33.82,33.82,0,0,1,3.85-1.23,1.29,1.29,0,0,1-.72.84,22.06,22.06,0,0,0-3.73,1.33C77.49,154,77.57,153.52,78,153.37Z"/><path class="cls-1" d="M66.22,6.82A2.55,2.55,0,0,1,67.69,5.5c-.56,3.11.53,6.2,1.51,9.12A129.11,129.11,0,0,0,76.83,30c2.7,5.15,5.68,10.27,7,16a41.1,41.1,0,0,1,1.3,13.39,63.36,63.36,0,0,1-2.2,13,67,67,0,0,1-3.46,9.36c-.34.63-.62,1.57-1.49,1.55.07-2.16,1.18-4.09,1.74-6.14a39.61,39.61,0,0,0,1.83-11,52.72,52.72,0,0,0-.15-8.24A46.92,46.92,0,0,0,79,47.41a99.2,99.2,0,0,0-6.67-13.52,128.59,128.59,0,0,1-6.42-13.2A43.13,43.13,0,0,1,64,14.38c-1.36,1.82-1.44,4.17-1.6,6.35-.14,5.24,2.15,10.08,4.45,14.65,2.76,5.5,6.5,10.6,8,16.66a27.07,27.07,0,0,1,.46,5.89,23.1,23.1,0,0,1-2,7.42c-.54,1.17-.76,2.66-2,3.34a17.54,17.54,0,0,0-2.26-2.83,21.11,21.11,0,0,1,.46,5.43,27.48,27.48,0,0,1-3.86,11.1,2.51,2.51,0,0,1-.77.64,4.68,4.68,0,0,1,.4-3,19.89,19.89,0,0,0,1-5,20.54,20.54,0,0,0-1.57-7.38c-1.5-3.94-4.06-7.42-5.19-11.51a14.88,14.88,0,0,1,.7-8.32,5.92,5.92,0,0,1,2.13-3.08c-.07,1.63-.5,3.3,0,4.9.76,2.5,2.72,4.41,4.7,6,1.61,1.17,3.11,2.48,4.65,3.75-.54-4.65-2.91-8.83-5.25-12.8a87.52,87.52,0,0,1-6.34-13A22.89,22.89,0,0,1,59,23.16c.28-4.26,2.42-8.06,4.46-11.71C64.29,9.86,65.44,8.45,66.22,6.82Z"/><path class="cls-1" d="M47.6,37.92A7.85,7.85,0,0,1,49.31,35c.11,1.38-.27,2.76-.1,4.15.1,2.71,1.47,5.11,2.7,7.45A20.17,20.17,0,0,1,54,53.39c.52,3.89-.83,7.68-2,11.35A3,3,0,0,1,51.2,66l-.64-.56a19.48,19.48,0,0,1,1.2,11.53,21.77,21.77,0,0,1-2.21,6.38c-.14.39-.56.41-.89.52-.13-1.67.47-3.27.73-4.9A15.91,15.91,0,0,0,46.87,69c-2.28-3.78-5.06-7.41-6-11.82a19.06,19.06,0,0,1,1.42-12.12,1.66,1.66,0,0,1,.86-.85c.11,1.24-.47,2.47-.12,3.71a13.07,13.07,0,0,0,3.57,6A31.87,31.87,0,0,0,51,57.39c-.75-4-3.69-7-4.45-11A14.47,14.47,0,0,1,47.6,37.92Z"/><path class="cls-1" d="M54.66,36.2a4.1,4.1,0,1,1-2.84,4.61A4.12,4.12,0,0,1,54.66,36.2Z"/><path class="cls-1" d="M56.66,63.81a4.1,4.1,0,1,1-2.95,4.57A4.12,4.12,0,0,1,56.66,63.81Z"/><path class="cls-1" d="M57.2,73.35a4.1,4.1,0,1,1-2.74,4.45A4.12,4.12,0,0,1,57.2,73.35Z"/><path class="cls-1" d="M37.08,59.8s-5.74-6.57-14.36-8.24L15.65,74.79S38,78.61,47.26,97.21c0,0-2.29-16.72-27.9-24.2l5.73-18A26.33,26.33,0,0,1,37.08,59.8Z"/><path class="cls-1" d="M18.28,62.15,19,60l-4.59-1.39L7.66,81.79S26,79.29,47.26,97.21c0,0-12.35-18-35.43-18.07l4.58-17.37Z"/><path class="cls-1" d="M12.92,83,12,87.27s17.24-3.54,35.29,9.94c0,0-20.49-11.71-40-6.17l2.06-8.16,1.21,0a7.51,7.51,0,0,1,1.42.07Z"/><path class="cls-1" d="M86.79,59.8s5.74-6.57,14.36-8.24l7.07,23.23S85.91,78.61,76.61,97.21c0,0,2.29-16.72,27.9-24.2L98.78,55A26.33,26.33,0,0,0,86.79,59.8Z"/><path class="cls-1" d="M105.6,62.15,104.92,60l4.59-1.39,6.7,23.16s-18.34-2.5-39.6,15.42c0,0,12.36-18,35.43-18.07l-4.58-17.37Z"/><path class="cls-1" d="M111,83l.94,4.23s-17.23-3.54-35.29,9.94c0,0,20.5-11.71,40-6.17l-2.06-8.16-1.2,0a7.58,7.58,0,0,0-1.43.07Z"/></g></svg>