<?xml version="1.0" encoding="utf-8"?>
<!-- Generator: Adobe Illustrator 25.4.1, SVG Export Plug-In . SVG Version: 6.00 Build 0)  -->
<svg version="1.1" id="Layer_1" xmlns="http://www.w3.org/2000/svg" xmlns:xlink="http://www.w3.org/1999/xlink" x="0px" y="0px"
	 viewBox="0 0 99 115" style="enable-background:new 0 0 99 115;" xml:space="preserve">
<style type="text/css">
	.st0{fill:#414334;}
</style>
<g id="Layer_1_00000027571514880522113840000010892959363839568783_">
	<path class="st0" d="M16,38.8c1.9,1.2,3.6,2.5,5.5,3.7c0.1-0.1,0.3-0.2,0.4-0.3c1-1.4,1.8-3,2.4-4.6c0.2-0.5,0-1-0.4-1.2
		c-1.5-1.2-3.1-2.3-4.7-3.2c-0.3-0.2-0.6-0.3-0.9-0.2c-0.8,1.2-1.2,2.7-2.1,4c-1.8-1.4-3.7-2.7-5.7-3.8c-1,1.8-1.9,3.7-2.7,5.5
		c1.9,1.5,4,2.9,6.1,4.1C14.7,41.6,15.4,40.2,16,38.8"/>
	<path class="st0" d="M19.3,64.9c0.1-0.2,0.3-0.4,0.5-0.5c2.5,2.1,4.7,4.7,6.3,7.5c0.2,0.5,0,0.8-0.2,1.1c-1.1,1.2-2.4,2.3-3.8,3.1
		c-1.5,1-3.2,1.7-5,2.1c-0.8,0.2-1.6,0.2-2.4,0c-1-0.1-1.8-1-1.7-2c0-0.2,0.1-0.4,0.1-0.6c0.4-1.4,1-2.7,1.7-3.9
		C16.1,69.3,17.6,67,19.3,64.9 M21.6,50.1c1.3-1.8,2.8-3.4,4.5-4.9c0.4-0.5,1-0.8,1.7-0.8c0.1,0.4,0.1,0.9-0.1,1.3
		c-0.8,1.7-1.7,3.3-2.7,4.8c-1.3,2.1-2.6,4.1-4,6.1c-0.1,0.1-0.1,0.2-0.3,0.3c-0.9-0.6-1.8-1.3-2.5-2.1
		C19.3,53.2,20.4,51.7,21.6,50.1 M56.6,16.7c-0.3-0.2-0.3-0.6-0.1-0.9c0,0,0,0,0.1-0.1c0.5-0.9,1.6-1.3,2.5-0.8
		c0.4,0.2,0.7,0.5,0.9,0.9c0.5,1,0.6,2.2,0.2,3.2C58.9,18.3,57.8,17.5,56.6,16.7 M49,79.5c1.6-2.1,2.5-5.4,2.4-9.9
		c-0.1-2-0.5-5.2-1.2-9.5h4.3c1.8,0.1,9-2.6,21.4-8c0.8-0.4,1.7-0.7,2.5-1c0.1,0.5,0.2,1,0.3,1.4c0.4,2.2,0.5,4.4,0.3,6.6
		c-0.1,1.7,0,2.5,0.2,2.5s0.4-0.4,0.8-1.1c0.9-1.9,1.2-5.1,1-9.4L81,50.3c1.4-0.4,2.9-0.7,4.4-0.9c1-0.1,3.6-0.3,7.6-0.5
		c0.7-1.2,1.1-2.6,1.3-4c0-0.5-0.2-0.7-0.5-0.8c-5.1-0.2-9.6-0.5-13.7-1c-0.7-4.8-1.8-11.1-3.3-19c-1.6-8.7-2.4-13.5-2.4-14.2
		c0.7,0.6,1.4,1.2,2.2,1.8c0.2,0.1,0.3,0.2,0.5,0.2c0.2,0,0.2-0.1,0.2-0.3c0-0.7-0.7-2.3-2.1-4.8c-0.9-1.7-1.8-3.3-2.7-5
		c-0.5-1.1-0.9-1.6-1.2-1.6c-0.1,0-0.2,0.1-0.2,0.3c-0.8,3-1.2,4.7-1,5c0.4,0.7,0.8,1.5,1.2,2.2c0.8,5.1,1.3,9,1.7,11.7
		c1.5,9.2,2.9,17,4,23.4c-5.3-0.7-8.4-1.1-9.4-1.2c2-2,3.1-4.7,3.1-7.5c0.1-2.5-0.5-7.2-1.9-14.3c-1.1-5.7-2.1-10.2-3-13.3
		c0.8,0.3,1.6,0.5,2.4,0.6c0.2,0,0.3-0.2,0.3-0.4c0-0.4-0.7-1.2-2.1-2.4c-1.1-0.9-2.1-1.8-3.1-2.8c-0.4-0.5-0.7-0.6-0.9-0.3
		c-0.1,0.1-0.1,0.2-0.1,0.2c-0.2,1.1-0.5,2.3-0.9,3.4c0,0.2,0,0.3,0.1,0.5c0.7,0.8,1.2,1.1,1.4,1.1C64,11,65,15.9,66.1,20.7
		c1.6,7.4,2.4,12.3,2.4,14.6c0,0.5,0,1.1-0.3,1.6c-1.6,0.9-3.4,1.6-5.2,2c-2.5,0.8-4.6,1.3-6.3,1.6c-0.3,0-0.7,0.6-1.2,1.8
		c-0.4,0.9-0.7,1.8-0.8,2.8c0,0.4,0.1,0.6,0.3,0.6c0.1,0,0.1,0,0.2,0c1.9,0,3.9,0.1,5.8,0.4c1.4,0.2,2.8,0.4,4.3,0.6L75.9,48
		c-0.7,0.1-4,1.4-10.1,3.8c-5.5,2.1-9.2,3.2-11.3,3.2h-5.1c-0.2-1.2-0.4-2.4-0.7-3.7c-0.6-3.1-1.5-8.7-2.4-14.7
		c5.3-3.8,9.9-8.5,13.3-14l3.2,2.7c1.2-1.4,1.3-2.6,0.2-3.8c-0.3-0.3-0.6-0.6-1-0.9c-0.3-0.2-0.6-0.5-0.9-0.7
		c0.7-1.5,0.9-3.2,0.6-4.8c-0.1-1-0.4-1.9-0.9-2.7c-0.5-0.9-1.7-1.2-2.6-0.7c-0.2,0.1-0.3,0.2-0.5,0.4c-1.6,1.4-2.7,3.2-3.1,5.3
		c-0.3,1.1,0.1,2.2,1,2.8c0.6,0.4,1.1,0.8,1.7,1.2c0.4,0.2,0.8,0.5,1.3,0.7c-0.3,0.4-0.6,0.9-0.9,1.2c-1.5,1.7-3.1,3.4-4.7,5
		c-2.3,2.1-4.7,4.1-7.1,6c-1.5-10-3-20.1-3-20.4l1.7,2c0.1,0.1,0.3,0.2,0.5,0.2c0.1,0,0.2-0.1,0.2-0.3c0-1.1-1.3-4.1-3.9-9
		c-0.4-1-0.7-1.5-1-1.5c-0.1,0-0.2,0.1-0.2,0.3c-0.9,2.7-1.2,4.4-0.8,5.1c0.4,0.7,0.7,1.5,1,2.3c0.5,4.4,0.9,7.7,1.2,9.9
		c0.3,1.7,1.1,7.1,2.1,13.3l-0.5,0.4c-2.5,2-5.2,3.7-7.8,5.6c-0.7,0.5-1.4,0.8-2.1,1.2c3.7-1.3,7.3-3,10.7-5.1
		c1.4,9,2.9,19,3.3,21.5c1.4,8.1,2.1,13,2.1,14.7c0,0.2,0,0.4-0.1,0.7c-3.9,4.1-8.5,7.6-13.5,10.3c-5,2.9-8.7,4.3-11,4.3
		c-4.4,0-7.6-1.4-9.8-4.1c0.7,0,1.3-0.1,2-0.2c2.6-0.8,5-2.2,7.1-4c1.2-0.8,2.1-2,2.7-3.3c2.1-4.8,2.1-9.7-0.6-14.4
		c-1-1.6-2.1-3.2-3.4-4.6l0.2-0.4c0.9-1.4,1.8-2.8,2.8-4.2c2.8-3.9,4.7-8.4,5.6-13.2c0.2-1,0.2-2,0.1-2.9c-0.1-0.7-0.7-1.2-1.3-1.1
		c-0.1,0-0.3,0.1-0.4,0.1c-0.6,0.2-1.1,0.5-1.5,0.8c-1.6,1.1-3,2.5-4.2,4c-2,2.5-3.9,5.2-5.8,7.9c-0.7,1-1.3,1.9-2,2.9
		c-0.8-0.7-1.4-1.5-2.1-2.4c1.2-0.4,2.4,0.1,3.5-0.4c-0.2-0.9-7.5-5.8-8.6-5.9c-0.2,0.2-0.3,0.4-0.3,0.7c-0.4,1.4-0.7,2.9-0.8,4.3
		c-0.1,0.9,0.2,1.8,0.8,2.5c0.4,0.5,0.9,0.9,1.4,1.4c1.1,1.3,1.9,2.7,2.9,4c-2.2,2.5-4.5,4.9-6.9,7.1c-1.9,1.7-3.8,3.3-5.7,5
		c-0.2,0.2-0.6,0.4-0.5,0.9c6.1-2.2,10.8-6.2,14.8-11.1l2.5,2.8c-0.9,1.6-1.8,3.1-2.7,4.6c-2.2,3.6-3.5,7.7-3.6,11.9
		c0,0.7,0,1.3,0.1,2c0,3.4,1,6.7,2.9,9.5c2.1,3,5.5,4.8,9.2,4.6c3.8,0,8.4-1.7,13.9-5.1C41.6,87,45.6,83.6,49,79.5"/>
	<path class="st0" d="M47.8,7.7c0.5,0.3,1,0.6,1.5,0.9c0.4,0.2,0.5,0.2,0.8-0.2c0.1-0.1,0.2-0.2,0.3-0.3c0.2,0.1,0.3,0.3,0.4,0.5
		c0.5,0.7,1,1.4,1.4,2.2c0.5,0.9,0.8,2,1.2,3c0.1,0.2,0.1,0.5,0.5,0.6c0.1-0.2,0.2-0.3,0.3-0.5c0.1-0.3,0.2-0.6,0.2-0.9
		c0.1-1.1,0.2-2.2,0.3-3.2s0.3-2,0.5-3c0.1-0.3,0.2-0.6,0.3-0.8c0.2-0.4,0.6-0.5,1-0.4c0.1,0,0.1,0.1,0.2,0.1
		c0.3,0.2,0.6,0.4,0.8,0.6c0.1,0.1,0.2,0.2,0.3,0.2c0.2-0.5,0.4-1.1,0.3-1.7c0-0.8-0.5-1.5-1.2-1.8c-0.8-0.2-1.6,0.1-2,0.9
		c-0.4,0.6-0.6,1.2-0.7,1.9C54.2,7,54.1,8.3,54,9.7c0,0.4-0.1,0.8-0.1,1.2c-0.1-0.1-0.2-0.2-0.3-0.3c-0.4-0.9-0.8-1.8-1.2-2.7
		c-0.4-0.8-1-1.5-1.6-2.2c-0.4-0.5-0.9-0.8-1.5-1c-0.5-0.2-0.6-0.1-0.8,0.3s-0.5,1.1-0.8,1.6S47.5,7.4,47.8,7.7"/>
	<path class="st0" d="M34.5,68c-0.3,0.5-0.5,1.1-0.8,1.6s-0.2,0.7,0.2,1c0.5,0.3,1,0.6,1.5,0.9c0.4,0.2,0.5,0.2,0.8-0.2
		c0.1-0.1,0.2-0.2,0.3-0.3c0.2,0.1,0.3,0.3,0.5,0.5c0.5,0.7,1,1.4,1.4,2.2c0.5,0.9,0.8,2,1.2,3c0.1,0.2,0.1,0.5,0.5,0.6
		c0.1-0.2,0.2-0.3,0.3-0.5c0.1-0.3,0.2-0.7,0.2-1c0.1-1.1,0.2-2.2,0.3-3.2s0.3-2,0.5-3c0.1-0.3,0.2-0.6,0.3-0.8
		c0.1-0.4,0.5-0.6,0.9-0.5c0.1,0,0.2,0.1,0.2,0.1c0.3,0.2,0.6,0.4,0.8,0.7c0.1,0.1,0.2,0.2,0.4,0.2c0.2-0.5,0.4-1.1,0.3-1.7
		c0-0.8-0.5-1.5-1.2-1.8c-0.8-0.2-1.6,0.1-2,0.9c-0.4,0.6-0.6,1.2-0.7,1.9c-0.2,1.4-0.3,2.7-0.5,4.1L40,73.7
		c-0.1-0.1-0.2-0.2-0.3-0.3c-0.4-0.9-0.8-1.8-1.2-2.6c-0.4-0.8-1-1.5-1.6-2.2c-0.4-0.5-0.9-0.8-1.5-1C34.9,67.4,34.8,67.5,34.5,68"
		/>
	<path class="st0" d="M39.9,45.3h-0.2c-0.1,0.1-0.2,0.2-0.2,0.4c-0.8,1.8-1.7,3.6-2.3,5.4c-0.3,0.9-0.5,1.9-0.6,2.8
		c-0.1,1,0,2.1,0.4,3c0.4,0.9,1,1.7,2.1,1.8c1.1,0,2-0.7,2.4-1.7c0.2-0.3,0.3-0.7,0.3-1.1c0-0.7,0-1.5,0-2.2
		c-0.1-0.2-0.1-0.5-0.2-0.7c-0.2,0.5-0.3,0.8-0.5,1.1c-0.2,0.5-0.5,0.9-0.8,1.4c-0.6,0.7-1.3,0.7-1.6-0.2c-0.2-0.7-0.3-1.4-0.3-2.2
		c0.2-1.8,0.5-3.6,1.1-5.4C39.5,46.9,39.7,46.1,39.9,45.3"/>
	<path class="st0" d="M61.2,29.4h-0.1c0,0.1-0.1,0.1-0.1,0.2c-0.5,1-1,2-1.3,3.1c-0.2,0.5-0.3,1.1-0.3,1.6c-0.1,0.6,0,1.2,0.2,1.7
		c0.2,0.5,0.6,0.9,1.2,1c0.6,0,1.2-0.4,1.4-1c0.1-0.2,0.2-0.4,0.2-0.6c0-0.4,0-0.8,0-1.3c0-0.1-0.1-0.3-0.1-0.4
		c-0.1,0.3-0.2,0.5-0.3,0.6c-0.1,0.3-0.3,0.5-0.5,0.8c-0.4,0.4-0.8,0.4-0.9-0.1c-0.1-0.4-0.2-0.8-0.2-1.3c0.1-1.1,0.3-2.1,0.6-3.1
		C61,30.3,61.1,29.8,61.2,29.4"/>
	<path class="st0" d="M13.9,23.3c2.5-1.8,5.1-3.6,7.6-5.4c4.5-3.3,8.9-6.7,13.6-9.7c1-0.9,1.4-2.3,1-3.6c-0.5,0.5-0.9,0.9-1.5,1.4
		c-3.9,2.8-7.8,5.7-11.8,8.5c-3.1,2.2-6.1,4.4-9.2,6.6c-1.3,0.9-1.6,2.7-0.8,4C13.2,23.9,13.4,23.7,13.9,23.3"/>
	<polygon class="st0" points="75.8,0 77.2,2.2 96.8,2.2 96.8,95.3 31.7,95.3 26.4,97.6 99,97.6 99,0 	"/>
	<path class="st0" d="M89.7,73.9l5-6.7c-7.1-0.1-14,2-19.9,6c-5.9-4-12.8-6.1-19.9-6l5,6.7c3.6-0.9,7.4,0.2,11.1,2.2
		c-4.6,4.1-9,10.2-12,19c0,0,7.1-10.1,15.8-16.5c8.6,6.3,15.8,16.4,15.8,16.4c-3-8.8-7.3-14.8-12-19C82.3,74.1,86.1,73,89.7,73.9"/>
	<path class="st0" d="M34.9,16.2c0,0-0.4,1.4-0.4,1.5s-0.1,0.6-0.1,0.7c0,0.1,0,0.2,0,0.3v0.1l2.6,5.8c0,0-0.2,0.2-0.3,0.3
		s-0.8,0.4-0.9,0.4s-1-0.1-1.1-0.1s-0.6-0.3-0.7-0.3s-0.6-0.5-0.7-0.6c-0.1-0.1-0.2-0.3-0.3-0.4c-0.2-0.3-0.3-0.6-0.4-0.9
		c-0.1-0.2-0.9-3-1-3.2s-0.3-0.7-0.5-1c-0.1-0.2-0.8-1.5-0.9-1.5l-0.3-0.4c0,0.1-0.1,0.1-0.1,0.2c0,0-0.3,2.3-0.3,2.4s0.3,0.6,0.5,1
		c0,0.1,0.9,2.6,0.9,2.7c0.1,0.2,0.1,0.5,0.1,0.7c0,0.1,0,1,0,1.1c0,0.3-0.1,0.6-0.2,0.9c0,0.1-0.5,0.7-0.5,0.7
		c-0.2,0.1-0.4,0.3-0.6,0.4c-0.3,0.2-0.6,0.3-0.9,0.3c-0.2,0-0.4,0-0.6-0.1c-0.1,0-0.2-0.1-0.4-0.2c-0.1-0.1-0.3-0.2-0.4-0.4
		c-0.2-0.3-0.4-0.6-0.5-1c0,0,0,0,0-0.1l-0.7-5c0,0,0,0,0-0.1c0-0.1-0.1-0.2-0.1-0.3s-0.1-0.5-0.1-0.6s-0.5-1-0.5-1L25.2,21
		c0,0.3,0.2,0.5,0.4,1c0,0.1,0.2,1,0.2,1.1c0,0.3,0.6,4.3,0.6,4.4s0.4,1,0.5,1s0.5,0.6,0.6,0.6c0.1,0.1,0.2,0.1,0.2,0.2
		c0.2,0.1,0.4,0.2,0.6,0.3c0.2,0,0.4,0.1,0.6,0.1c0.6-0.1,1.1-0.3,1.5-0.6c0-0.1,0.5-0.6,0.6-0.8s0.4-0.8,0.5-0.9s0.5-2.5,0.5-2.5
		s0.2,0.5,0.3,0.8c0,0.1,0.6,0.9,0.7,1c0.2,0.2,0.4,0.4,0.6,0.5c0.2,0.2,0.5,0.3,0.7,0.4c0.1,0,1,0.3,1,0.3c0.1,0,0.3,0,0.4,0
		c0.2,0,0.5-0.1,0.7-0.1c0.1,0,0.2-0.1,0.3-0.2c0.1,0,0.5-0.5,0.6-0.6c0.2-0.4,0.4-0.8,0.6-1.3c0-0.1,0.2-1.4,0.2-1.5
		s-0.3-1.6-0.3-1.7s-2.8-6.3-2.8-6.3L34.9,16.2"/>
	<polygon class="st0" points="13.3,115 15.2,114.3 15.3,113.8 13.4,114.5 	"/>
	<polygon class="st0" points="14.4,105 13.3,103.9 12.2,105 13.3,106.1 	"/>
	<polygon class="st0" points="16.6,105 15.5,103.9 14.4,105 15.5,106.1 	"/>
	<polygon class="st0" points="20.8,103.5 19,104.2 18.9,104.6 20.8,103.9 	"/>
	<path class="st0" d="M20.8,109.5c-0.2-0.1-0.3-0.1-0.5-0.2c-0.2,0-0.4-0.1-0.5-0.1c-0.2,0-0.4,0-0.6,0c0.1-0.3,0.2-0.5,0.4-0.7
		c0.1-0.1,0.3-0.2,0.4-0.2c0.1,0,0.2,0,0.4,0c0.1,0.1,0.3,0.2,0.4,0.3c0.1,0.1,0.2,0.3,0.3,0.5c0.1,0.2,0.1,0.5,0.1,0.8
		C21,109.7,20.9,109.6,20.8,109.5 M12.9,109.3c0.1-0.4,0.3-0.7,0.6-1c0.2-0.2,0.4-0.3,0.6-0.3c0.1,0,0.1,0,0.2,0.1
		c0.1,0.1,0.1,0.1,0.2,0.2l0.2,0.4c0,0.1,0.1,0.3,0.2,0.6L12.9,109.3z M22.2,108.6c-0.1-0.2-0.2-0.5-0.3-0.7
		c-0.1-0.2-0.3-0.4-0.4-0.6c-0.2-0.2-0.4-0.3-0.6-0.4c-0.3-0.1-0.5-0.2-0.8-0.2c-0.3,0-0.6,0.1-0.8,0.2c-0.3,0.2-0.5,0.4-0.6,0.7
		c-0.2,0.3-0.4,0.6-0.5,0.9c-0.1,0.3-0.2,0.6-0.2,0.9h-1.6c0-0.3-0.1-0.7-0.2-1c-0.1-0.3-0.2-0.7-0.3-1c-0.1-0.3-0.3-0.5-0.4-0.7
		c-0.1-0.2-0.4-0.3-0.6-0.3c-0.3,0-0.6,0.1-0.9,0.2c-0.3,0.1-0.5,0.3-0.8,0.5c-0.2,0.2-0.4,0.4-0.6,0.7c-0.2,0.3-0.3,0.5-0.5,0.8
		c-0.1,0.3-0.2,0.6-0.3,0.9c-0.1,0.3-0.1,0.6-0.2,0.9v0.2c0,0,0,0.1,0,0.2c0,0.1,0,0.1,0.1,0.2c0,0,0.1,0.1,0.1,0.1h2.8l0.3-1
		c0.1,0.4,0.2,0.8,0.2,1h5c0.2,0,0.4,0,0.6,0.1c0.2,0.1,0.4,0.1,0.7,0.2c0.2,0.1,0.4,0.3,0.6,0.5c0.1-0.2,0.1-0.4,0.2-0.5
		c0.1-0.4,0.2-0.8,0.2-1.3c0-0.2,0-0.4,0-0.6C22.3,109,22.2,108.7,22.2,108.6"/>
	<polygon class="st0" points="24.7,103.6 23.2,104.6 23.2,111.3 24.7,110.3 	"/>
	<polygon class="st0" points="27.6,103.3 25.8,104 25.7,104.4 27.5,103.7 	"/>
	<polygon class="st0" points="32,101 30.2,101.8 30.1,102.2 31.9,101.5 	"/>
	<path class="st0" d="M34.9,101.5c0-0.1,0-0.3,0.1-0.4c0.1-0.1,0.2-0.2,0.3-0.2c0.2,0,0.4,0.2,0.5,0.6c0,0.1-0.1,0.2-0.2,0.2
		c-0.1,0-0.2,0.1-0.3,0.1C35.1,101.8,34.9,101.7,34.9,101.5 M35.9,102c0.2-0.2,0.3-0.5,0.2-0.8c0-0.2,0-0.4-0.2-0.6
		c-0.1-0.2-0.3-0.3-0.5-0.3c-0.2,0-0.4,0.2-0.6,0.4c-0.2,0.3-0.3,0.6-0.3,0.9c0,0.4,0.2,0.7,0.5,0.7C35.5,102.4,35.7,102.3,35.9,102
		"/>
	<path class="st0" d="M34.9,109.3h-1.6c-0.1-0.3-0.2-0.7-0.4-1c-0.2-0.3-0.4-0.6-0.6-0.8c-0.3-0.2-0.5-0.4-0.9-0.6
		c-0.3-0.2-0.7-0.3-1-0.3l1.9-1l0.2-0.1l0.2-0.1c0.1,0,0.2,0,0.2,0c0.1,0,0.2,0,0.2,0.1v-1c0-0.2-0.1-0.4-0.2-0.5
		c-0.1-0.1-0.3-0.2-0.5-0.2c-0.2,0-0.5,0.1-0.6,0.2l-2.3,1.5l-0.3,0.2c-0.1,0.1-0.2,0.2-0.3,0.3c-0.1,0.1-0.2,0.2-0.2,0.4
		c-0.1,0.2-0.1,0.3-0.1,0.5v1.2c0.2,0,0.5,0,1,0.1c0.3,0,0.5,0.1,0.8,0.2c0.2,0.1,0.5,0.2,0.7,0.3c0.2,0.1,0.4,0.2,0.5,0.4
		c0.1,0.1,0.2,0.3,0.3,0.4h-4c-0.2-1-0.5-2-1-2.9l-1.2,1.5l0.4,0.5c0.1,0.2,0.2,0.3,0.3,0.5c0.1,0.2,0.1,0.3,0.2,0.5
		c0.1,0.2,0.1,0.3,0.1,0.5c0,0.3-0.1,0.5-0.2,0.8c-0.1,0.3-0.2,0.5-0.4,0.7c-0.2,0.3-0.4,0.5-0.6,0.7c-0.3,0.3-0.5,0.5-0.9,0.7
		l1.6,1.3c0.9-0.9,1.4-2,1.7-3.2h8.6v-7l-1.6,1L34.9,109.3z"/>
	<polygon class="st0" points="37.4,111.3 38.9,110.3 38.9,103.6 37.4,104.6 	"/>
	<polygon class="st0" points="43,102.5 44.8,101.8 44.9,101.3 43.1,102 	"/>
	<polygon class="st0" points="41.8,105 42.9,106.1 44,105 42.9,103.9 	"/>
	<polygon class="st0" points="45.2,106.1 46.3,105 45.2,103.9 44.1,105 	"/>
	<path class="st0" d="M47.6,101.2C47.6,101.2,47.6,101.1,47.6,101.2C47.5,101.1,47.5,101.1,47.6,101.2c-0.2-0.1-0.3,0-0.3,0.2
		c-0.1,0.1-0.1,0.3-0.1,0.4c0,0.1,0,0.2,0.1,0.3c0,0,0,0.1,0,0.1v0.2l0.2-0.1c0.1,0,0.2,0.1,0.2,0.1c0.3,0,0.5-0.2,0.7-0.4l0,0
		c0.1,0.1,0.2,0.2,0.3,0.2c0.2,0,0.4-0.2,0.6-0.7v-0.1v-0.1c0-0.1,0-0.2,0-0.3c0-0.1,0-0.1-0.1-0.1s-0.1,0.1-0.2,0.3v0.1l-0.5,0.2
		l0,0l0-0.3v-0.1c0-0.1,0-0.1-0.1-0.1s-0.1,0.1-0.2,0.3s-0.1,0.2-0.2,0.4l-0.5,0.2c-0.1,0-0.2-0.1-0.2-0.2c0,0,0,0,0,0
		c0-0.1,0-0.2,0.1-0.3C47.5,101.4,47.5,101.3,47.6,101.2"/>
	<path class="st0" d="M53.2,103.7c-0.2,0.2-0.5,0.3-0.8,0.4c-0.3,0.2-0.5,0.3-0.5,0.3s0,0.1,0.1,0.1c0.1,0,0.1,0,0.2,0
		c0.3-0.1,0.7-0.2,1-0.4c0.2-0.1,0.4-0.3,0.6-0.5c0.2-0.2,0.3-0.4,0.3-0.7c0-0.3-0.1-0.4-0.3-0.4c-0.1,0-0.2,0.1-0.3,0.2
		c-0.1,0.1-0.1,0.2-0.1,0.3c0,0.2,0.1,0.3,0.3,0.3C53.5,103.6,53.4,103.7,53.2,103.7"/>
	<path class="st0" d="M42.5,109.3c0.1-0.4,0.3-0.7,0.6-1c0.2-0.2,0.4-0.3,0.7-0.3c0.1,0,0.1,0,0.2,0.1c0.1,0.1,0.1,0.1,0.2,0.2
		l0.2,0.4c0,0.1,0.1,0.3,0.2,0.6L42.5,109.3z M55,108.6l-0.5-0.8c-0.2-0.2-0.3-0.5-0.5-0.7c-0.2-0.2-0.4-0.4-0.7-0.5
		c-0.3-0.1-0.5-0.2-0.8-0.2c-0.2,0-0.3,0-0.5,0.1c-0.2,0.1-0.3,0.1-0.5,0.2c-0.2,0.1-0.4,0.3-0.5,0.4l-0.7,0.6l0.5,0.5
		c0.3-0.2,0.6-0.4,1-0.4c0.4,0,0.7,0.1,1,0.4c0.1,0.1,0.2,0.2,0.3,0.3l0.3,0.4c0.1,0.2,0.2,0.2,0.2,0.3h-4.3v-5.4l-1.5,1v4.5h-1.9
		c0-0.3-0.1-0.7-0.2-1c-0.1-0.3-0.2-0.7-0.3-1c-0.1-0.3-0.3-0.5-0.5-0.7c-0.1-0.2-0.4-0.3-0.6-0.3c-0.3,0-0.6,0.1-0.8,0.2
		c-0.3,0.1-0.5,0.3-0.8,0.5c-0.2,0.2-0.4,0.4-0.6,0.7c-0.2,0.3-0.4,0.5-0.5,0.8c-0.1,0.3-0.2,0.6-0.3,0.9c-0.1,0.3-0.1,0.6-0.2,0.9
		v0.2c0,0,0,0.1,0,0.2c0,0.1,0,0.1,0.1,0.2c0,0,0.1,0.1,0.1,0.1h2.8l0.3-1c0.1,0.4,0.2,0.8,0.2,1h10.9l0.5-1.6h-0.4
		C55.5,109.3,55.2,109,55,108.6"/>
	<path class="st0" d="M64.5,103.8c-0.2,0.2-0.5,0.3-0.8,0.4c-0.3,0.2-0.5,0.3-0.5,0.3s0,0.1,0.1,0.1c0.1,0,0.1,0,0.2,0
		c0.3-0.1,0.7-0.2,1-0.4c0.2-0.1,0.4-0.3,0.6-0.5c0.2-0.2,0.3-0.4,0.3-0.7c0-0.3-0.1-0.4-0.3-0.4c-0.1,0-0.2,0.1-0.3,0.2
		c-0.1,0.1-0.1,0.2-0.1,0.3c0,0.2,0.1,0.3,0.3,0.3C64.8,103.6,64.7,103.7,64.5,103.8"/>
	<polygon class="st0" points="73.1,103.3 71.3,104 71.2,104.5 73,103.8 	"/>
	<polygon class="st0" points="71.4,112.6 72.5,113.7 73.6,112.6 72.5,111.5 	"/>
	<path class="st0" d="M75,101.5c0-0.1,0-0.3,0.1-0.4c0.1-0.1,0.2-0.2,0.3-0.2c0.2,0,0.4,0.2,0.4,0.6c0,0.1-0.1,0.2-0.2,0.2
		c-0.1,0-0.2,0.1-0.3,0.1C75.1,101.8,75,101.7,75,101.5 M75.9,102c0.2-0.2,0.2-0.5,0.2-0.8c0-0.2,0-0.4-0.1-0.6
		c-0.1-0.2-0.3-0.3-0.5-0.3c-0.3,0-0.5,0.2-0.6,0.4c-0.2,0.3-0.3,0.6-0.3,0.9c0,0.4,0.2,0.7,0.6,0.7C75.5,102.4,75.8,102.3,75.9,102
		"/>
	<path class="st0" d="M79.4,103.8c-0.2,0.1-0.5,0.3-0.8,0.4c-0.3,0.2-0.5,0.3-0.5,0.3s0,0.1,0.1,0.1c0.1,0,0.1,0,0.2,0
		c0.3-0.1,0.7-0.2,1-0.4c0.2-0.1,0.4-0.3,0.6-0.5c0.2-0.2,0.3-0.4,0.3-0.7c0-0.3-0.1-0.4-0.3-0.4c-0.1,0-0.2,0.1-0.3,0.2
		c-0.1,0.1-0.1,0.2-0.1,0.3c0,0.2,0.1,0.3,0.3,0.3C79.7,103.6,79.5,103.7,79.4,103.8"/>
	<polygon class="st0" points="79.4,112.6 80.5,113.7 81.6,112.6 80.5,111.5 	"/>
	<polygon class="st0" points="77.1,112.6 78.2,113.7 79.3,112.6 78.2,111.5 	"/>
	<polygon class="st0" points="85.2,99.5 83.4,100.3 83.2,100.7 85.1,100 	"/>
	<polygon class="st0" points="84.3,104.3 85.3,103.2 84.3,102.2 83.2,103.2 	"/>
	<path class="st0" d="M83.1,107.3c0,0,0-0.1,0-0.2c0.1-0.1,0.1-0.2,0.2-0.3c0.1-0.1,0.2-0.2,0.3-0.3c0.1-0.1,0.3-0.1,0.4-0.1
		c0.2,0,0.3,0.1,0.4,0.2c0.2,0.2,0.3,0.5,0.4,0.7C84.2,107.4,83.6,107.4,83.1,107.3 M86.2,107.3c-0.1-0.3-0.2-0.7-0.3-1
		c-0.1-0.3-0.3-0.5-0.4-0.8c-0.2-0.2-0.4-0.4-0.6-0.5c-0.2-0.1-0.4-0.2-0.7-0.1c-0.2,0-0.5,0.1-0.7,0.2c-0.3,0.2-0.5,0.4-0.7,0.6
		c-0.2,0.3-0.4,0.6-0.6,0.9c-0.2,0.4-0.3,0.8-0.3,1.2c0,0.3,0.2,0.6,0.4,0.7c0.5,0.2,1,0.2,1.5,0.2c0.4,0,0.8-0.1,1.3-0.1v0.1
		l0.1,0.2c0,0,0,0.1,0.1,0.2s0,0.2,0,0.2h-5c-0.1-1-0.4-2-0.9-2.8l-1.2,1.4c0.3,0.5,0.6,0.9,0.8,1.4h-2.4v-5.4l-1.6,1v4.5h-1.4
		c-0.1-1-0.4-2-0.9-2.8l-1.2,1.4c0.3,0.5,0.5,1,0.8,1.4H70c-0.1-0.9-0.3-1.7-0.8-2.5l-0.2-0.4l-1.2,1.4c0,0,0,0,0,0.1
		c0,0,0,0.1,0.1,0.1c0,0,0,0.1,0.1,0.1v0.1c0.2,0.3,0.4,0.7,0.5,1.1h-1.2c-0.1-0.9-0.3-1.7-0.7-2.5l-0.2-0.4l-1.2,1.4c0,0,0,0,0,0.1
		c0,0,0,0.1,0,0.1c0,0,0,0.1,0.1,0.1v0.1c0.3,0.3,0.5,0.7,0.7,1.1h-1.5c-0.2-0.8-0.6-1.5-1-2.2l-1,1.5c0.4,0.6,0.8,1.3,1,2.1
		c-0.1,0.2-0.1,0.3-0.3,0.5c-0.1,0.2-0.3,0.3-0.4,0.4c-0.2,0.1-0.4,0.2-0.6,0.3c-0.2,0.1-0.4,0.1-0.6,0.1c-0.2,0-0.4,0-0.6-0.1
		c-0.2-0.1-0.4-0.2-0.5-0.3c-0.2-0.1-0.3-0.3-0.4-0.5c-0.1-0.2-0.1-0.4-0.1-0.6c0-0.5,0.1-1.1,0.4-1.5l-0.8-0.6
		c-0.1,0.2-0.3,0.4-0.4,0.6c-0.1,0.2-0.2,0.5-0.3,0.7c-0.1,0.3-0.1,0.5-0.2,0.7c0,0.2,0,0.5,0,0.8c0,0.3,0.1,0.6,0.2,0.8
		c0.1,0.3,0.3,0.6,0.5,0.8c0.3,0.3,0.6,0.5,0.9,0.6c0.4,0.2,0.9,0.3,1.4,0.2c0.3,0,0.7-0.1,1-0.2c0.3-0.1,0.5-0.2,0.8-0.4
		c0.2-0.2,0.4-0.4,0.6-0.6c0.2-0.2,0.3-0.5,0.4-0.7c0.1-0.2,0.2-0.5,0.2-0.7c0,0,0-0.1,0-0.1h21.8c0-0.1,0-0.2,0-0.4
		c0-0.2,0-0.3,0-0.4v-0.7c0-0.4,0-0.7-0.1-1.1C86.4,108,86.3,107.6,86.2,107.3"/>
	<path class="st0" d="M97.5,102.9c0.1,0.2,0.3,1.9,0.5,3.4l0.5-0.2c0.2-1,0.4-3.2,0.5-3.6l-0.1-0.1L97.5,102.9z"/>
	<path class="st0" d="M95.5,102.9c0.1,0.2,0.3,1.9,0.5,3.4l0.5-0.2c0.1-1,0.4-3.2,0.5-3.6l-0.1-0.1L95.5,102.9z"/>
	<path class="st0" d="M7,102.9c0.1,0.2,0.3,1.9,0.5,3.4l0.5-0.2c0.1-1,0.4-3.2,0.4-3.6l-0.1-0.1L7,102.9z"/>
	<path class="st0" d="M9,102.9c0.1,0.2,0.3,1.9,0.5,3.4l0.5-0.2c0.1-1,0.4-3.2,0.5-3.6l-0.1-0.1L9,102.9z"/>
	<path class="st0" d="M90,108.2l-0.3,0.3l-0.9,0.8c-0.1,0.1-0.2,0.2-0.3,0.3l0.7,0.6l0.8,0.6l0.2-0.2l0.2-0.2l0.6-0.6
		c0.2-0.2,0.3-0.3,0.4-0.4l-1.3-1.1C90.1,108.3,90.1,108.3,90,108.2"/>
	<path class="st0" d="M93.7,108.2c-0.1,0.1-0.2,0.2-0.3,0.3l-0.9,0.8c-0.1,0.1-0.2,0.2-0.3,0.3l0.7,0.6l0.8,0.6
		c0.1-0.1,0.1-0.1,0.2-0.2l0.2-0.2l0.6-0.6c0.2-0.2,0.3-0.3,0.4-0.4l-1.3-1.1C93.8,108.3,93.7,108.3,93.7,108.2"/>
</g>
</svg>
