<svg xmlns="http://www.w3.org/2000/svg" viewBox="0 0 103.32 159.38"><defs><style>.cls-1{fill:#f3f1eb;}</style></defs><g id="Layer_1" data-name="Layer 1"><polygon class="cls-1" points="92.33 30.78 98.92 30.78 103.32 30.78 103.32 26.38 103.32 0 98.92 0 98.92 26.38 92.33 26.38 92.33 30.78"/><polygon class="cls-1" points="59.35 30.78 85.73 30.78 90.13 30.78 90.13 26.38 90.13 24.18 96.72 24.18 96.72 21.98 96.72 19.78 96.72 0 92.33 0 92.33 19.78 90.13 19.78 85.73 19.78 85.73 24.18 85.73 26.38 59.35 26.38 59.35 30.78"/><rect class="cls-1" x="85.73" width="4.4" height="17.58"/><path class="cls-1" d="M59.35,17.58H79.14v2.2h-22V6.6h-11V24.18h6.6v2.2h-6.6v4.4h11v-6.6H83.54v-11H70.34V11h13.2V0h-4.4V6.6h-2.2V0h-4.4V6.6h-2.2V0H66V13.19h-6.6Zm-6.59,2.2h-2.2V11h2.2Z"/><rect class="cls-1" x="32.98" width="4.4" height="4.4"/><rect class="cls-1" x="59.35" y="6.6" width="4.4" height="4.4"/><polygon class="cls-1" points="39.57 30.78 43.97 30.78 43.97 26.38 43.97 6.6 39.57 6.6 39.57 26.38 37.37 26.38 37.37 6.6 32.98 6.6 32.98 26.38 32.98 30.78 37.37 30.78 39.57 30.78"/><rect class="cls-1" x="39.57" width="24.18" height="4.4"/><path class="cls-1" d="M6.6,11H11V4.4h2.2V17.58h11V4.4h6.6V0h-11V13.19H17.59V0H0V11H6.6ZM4.4,4.4H6.6V6.6H4.4Z"/><path class="cls-1" d="M26.38,70.34h4.4V52.76h-4.4V66H4.4v-2.2H24.18V50.56h6.6V26.38H0v4.4H26.38v8.79H4.4v-2.2H24.18V33H0V44H26.38v2.2H0v4.4H19.78v2.2H0V70.34H26.38ZM4.4,57.16H19.78v2.19H4.4Z"/><polygon class="cls-1" points="30.78 24.18 30.78 19.78 4.4 19.78 4.4 13.19 0 13.19 0 19.78 0 24.18 4.4 24.18 30.78 24.18"/><rect class="cls-1" x="6.6" y="13.19" width="4.4" height="4.4"/><rect class="cls-1" x="26.38" y="13.19" width="4.4" height="4.4"/><rect class="cls-1" x="26.38" y="6.6" width="4.4" height="4.4"/><rect class="cls-1" x="13.19" y="85.73" width="4.4" height="17.59"/><path class="cls-1" d="M57.16,76.94v-4.4h-11v6.6H19.78v11H33v2.2H19.78v11h4.4v-6.6h2.2v6.6h4.4v-6.6H33v6.6h4.39V90.13H44v-4.4H24.18V83.54h22V96.72h11V79.14h-6.6v-2.2Zm-4.4,6.6v8.79h-2.2V83.54Z"/><polygon class="cls-1" points="10.99 83.54 13.19 83.54 17.59 83.54 17.59 79.14 17.59 76.94 43.97 76.94 43.97 72.54 17.59 72.54 13.19 72.54 13.19 76.94 13.19 79.14 6.6 79.14 6.6 81.34 6.6 83.54 6.6 103.32 10.99 103.32 10.99 83.54"/><rect class="cls-1" x="65.95" y="98.92" width="4.4" height="4.4"/><rect class="cls-1" x="39.57" y="92.33" width="4.4" height="4.4"/><polygon class="cls-1" points="10.99 72.54 4.4 72.54 0 72.54 0 76.94 0 103.32 4.4 103.32 4.4 76.94 10.99 76.94 10.99 72.54"/><polygon class="cls-1" points="70.35 76.94 70.35 72.54 65.95 72.54 63.75 72.54 59.35 72.54 59.35 76.94 59.35 96.72 63.75 96.72 63.75 76.94 65.95 76.94 65.95 96.72 70.35 96.72 70.35 76.94"/><rect class="cls-1" x="39.57" y="98.92" width="24.18" height="4.4"/><path class="cls-1" d="M72.54,103.32h11V90.13h2.19v13.19h17.59v-11h-11v6.59h-2.2V85.73h-11V98.92h-6.6Zm24.18-6.6h2.2v2.2h-2.2Z"/><polygon class="cls-1" points="103.32 83.54 103.32 79.14 98.92 79.14 72.54 79.14 72.54 83.54 98.92 83.54 98.92 90.13 103.32 90.13 103.32 83.54"/><path class="cls-1" d="M98.92,50.56h4.4V33H72.54V50.56h4.4V37.37h22v2.2H79.14V52.76h-6.6V76.94h30.78v-4.4H76.94V63.75h22V66H79.14v4.39h24.18v-11H76.94V57.16h26.38v-4.4H83.54v-2.2ZM83.54,44H98.92v2.2H83.54Z"/><rect class="cls-1" x="92.33" y="85.73" width="4.4" height="4.4"/><rect class="cls-1" x="72.55" y="85.73" width="4.4" height="4.4"/><rect class="cls-1" x="72.55" y="92.33" width="4.4" height="4.4"/><rect class="cls-1" y="154.98" width="103.32" height="4.4"/><path class="cls-1" d="M3.18,127.65a5.63,5.63,0,0,0,2-.33,3.72,3.72,0,0,0,1.38-.84,4.3,4.3,0,0,0,.85-1.22,5.15,5.15,0,0,0,.46-1.39A8.41,8.41,0,0,0,8,122.42a7,7,0,0,0-.28-1.85A9.15,9.15,0,0,0,7.14,119q-.32-.58-.48-.6l-.12.06-.34.44a6.19,6.19,0,0,0-.52,1,2.59,2.59,0,0,0-.23.7l0,.08.19,0,.14-.17.17-.21A10.6,10.6,0,0,1,7,123.71l-.16.64c-.09.22-.51.49-1.29.82a5.51,5.51,0,0,1-2.13.49H3.24a1.83,1.83,0,0,1-1.52-.8,4.13,4.13,0,0,1-.45-2.17,4.2,4.2,0,0,1,.13-1.17c-.58.26-.9.42-1,.47A6.3,6.3,0,0,0,0,124.35a3.37,3.37,0,0,0,.86,2.37A3,3,0,0,0,3.18,127.65Z"/><path class="cls-1" d="M4,117.75a3.3,3.3,0,0,0-.65-.41s-.19.18-.45.53a4,4,0,0,0-.47.74l.17.15.47.35.55.38c.11-.14.28-.37.52-.72a3.83,3.83,0,0,0,.38-.59S4.31,118,4,117.75Z"/><path class="cls-1" d="M11.07,127.71a4,4,0,0,1-1.82.6A3.74,3.74,0,0,1,8,128l-.06,0-.08,0a2.22,2.22,0,0,0,.76.8,5.61,5.61,0,0,0,2.69.76c.57,0,1.13-.48,1.69-1.43a14.11,14.11,0,0,0,1.34-3.23h22.9a11.9,11.9,0,0,0,.37-2.21,13.49,13.49,0,0,0-.47-2.91c-.82.64-1.28,1-1.38,1.12.07.19.17.57.3,1.12a8.23,8.23,0,0,1,.2,1H34.38c0-.42-.05-1.43-.16-3a6.06,6.06,0,0,0-.81.73,3,3,0,0,0-.61.7,8.82,8.82,0,0,1,.35,1.61H31.3a9.14,9.14,0,0,0-.75-2.61,9.49,9.49,0,0,0-1.11,1.5l.11.36.16.42.1.33H27.1c-1-.39-2.33-1.73-4-4-.65-.9-1.06-1.36-1.21-1.36s-.52.37-1.07,1.1A3.69,3.69,0,0,0,20,120l.09,0,.15-.1.11-.12.51-.43c.2,0,.41.18.61.55A7.57,7.57,0,0,0,23,121.68a10,10,0,0,0,1.34,1.07l0,.15H14.66a8.51,8.51,0,0,0-.6-2.48,18.67,18.67,0,0,0-1.23-2.71l-.1-.15c-.53.47-1.19,1-2,1.63a5.5,5.5,0,0,0-1.37,1.46,4.07,4.07,0,0,0-.49,2.16,1.8,1.8,0,0,0,1.94,2h2.83l-.28.84A8.4,8.4,0,0,1,11.07,127.71Zm.82-4.81a1.78,1.78,0,0,1-1.35-.74,1.73,1.73,0,0,1-.29-1l.38-.7a1.26,1.26,0,0,1,.85-.42l.38.19a3,3,0,0,1,.45.66l.45.85.55,1.13Z"/><path class="cls-1" d="M21.26,114.61s-.19.18-.45.54a4.09,4.09,0,0,0-.47.73l.17.16.46.35.56.37c.11-.13.28-.37.52-.71a3.24,3.24,0,0,0,.38-.6s-.16-.17-.53-.43A3.66,3.66,0,0,0,21.26,114.61Z"/><polygon class="cls-1" points="35.73 120.76 35.71 120.86 35.75 120.81 35.73 120.76"/><path class="cls-1" d="M39.19,121.32c.08,1.45.18,2.82.27,4.12l.22-.11.4-.51.34-.49.17-.27q0-2.69-.22-9.22L40,115l-.72.65-.35.44c0,.16,0,.71.09,1.63S39.1,119.87,39.19,121.32Z"/><path class="cls-1" d="M49.26,124.8a4.36,4.36,0,0,0,.66-2q0-.34-.27-7.73v-.26c-.08,0-.35.19-.81.61s-.68.68-.68.76v.23c.15,2.34.3,4.49.45,6.48H46.05a.88.88,0,0,1-.74-.52,14.54,14.54,0,0,0-.88-2,3.84,3.84,0,0,0-.87-1.21c-.07,0-.2.34-.4,1a6,6,0,0,0-.29,1.15v.08a8.08,8.08,0,0,1,1.35,2,4.09,4.09,0,0,1,.43,1.57v.12a4.78,4.78,0,0,1-2,2.22,5.33,5.33,0,0,1-2.33,1,3.07,3.07,0,0,1-1.06-.31l-.43-.17c0,.13.18.3.49.52a5.5,5.5,0,0,0,2.85,1.27c.68,0,1.4-.57,2.15-1.7a8.29,8.29,0,0,0,1.37-3.24l.74.12h2.87Z"/><path class="cls-1" d="M51.81,115.69l-.35.44c0,.16,0,.71.09,1.63s.11,2.11.2,3.56.19,2.82.28,4.12l.22-.11.39-.51.34-.49.18-.27q0-2.69-.23-9.22l-.41.2Z"/><path class="cls-1" d="M58,114s-.19.18-.46.53a5.06,5.06,0,0,0-.47.74l.18.15.46.35.55.38c.11-.14.29-.38.53-.72a4.25,4.25,0,0,0,.37-.59s-.15-.17-.52-.43A3.39,3.39,0,0,0,58,114Z"/><path class="cls-1" d="M60.35,113.92s-.19.17-.45.53a4.73,4.73,0,0,0-.47.74l.18.15.45.35.56.38c.11-.14.28-.38.52-.72a3.83,3.83,0,0,0,.38-.59s-.16-.17-.52-.44A3.22,3.22,0,0,0,60.35,113.92Z"/><path class="cls-1" d="M72.56,126.18a3.07,3.07,0,0,0-.64-.33,2.91,2.91,0,0,0-.42.52,6.21,6.21,0,0,0-.43.69c.09.08.45.34,1.11.77a8.46,8.46,0,0,0,.88-1.31S72.91,126.38,72.56,126.18Z"/><path class="cls-1" d="M75.15,126.48s-.15-.14-.5-.34a2.83,2.83,0,0,0-.64-.33l-.41.52a5.06,5.06,0,0,0-.42.69,9.83,9.83,0,0,0,1.11.77A7.55,7.55,0,0,0,75.15,126.48Z"/><path class="cls-1" d="M86.74,124.8h1.08l.25-.51.26-.56q.15.6,1.83,1a11.55,11.55,0,0,0,2.58.42l.17-.37h9.69l.15-.18.51-1.66-.08-.06-.48-.09a5.76,5.76,0,0,1-1.53-1.16,18.86,18.86,0,0,1-1.45-1.53c-.36-.45-.68-.86-1-1.24-.66-.92-1.06-1.38-1.21-1.38s-.5.37-1.06,1.1a3.69,3.69,0,0,0-.83,1.43l.33-.25.51-.43c.19,0,.41.18.64.55a6.79,6.79,0,0,0,1.49,1.78,8.83,8.83,0,0,0,1.34,1.07l0,.15H93.44a8.16,8.16,0,0,0-1.19-2.62,10.73,10.73,0,0,0-1.72-2.14l-.13,0c-.32,0-.85.47-1.58,1.41a9.38,9.38,0,0,0-1.18,1.71s-.11.56-.29,1.66h-4.9a14.62,14.62,0,0,1,2.24-2.59,9.51,9.51,0,0,0,.18-1.57A9,9,0,0,0,81.1,118a6.89,6.89,0,0,0-3.18.61,6.34,6.34,0,0,0-.7,2.09l.07,0,.08,0,.16,0,.61.18.47.31.48.51.37.39.34.38.4.45H75.3a23.81,23.81,0,0,0-.33-4.09l-1.58,1.6c.06.22.15.75.29,1.58a6.43,6.43,0,0,0,.18.91H63.55l-.29-.07-.21-.12-.15-.24-.09-.26-.08-.35-.08-.36c-.23-1-.51-2.67-.82-5a5.44,5.44,0,0,0-1.07,1.33,4.52,4.52,0,0,0,.17.76L60,119l-.23.12a14.1,14.1,0,0,0-2.42,1.54,4.57,4.57,0,0,0-.49.86,3,3,0,0,0-.37,1l0,.07,1.6.88.52.28.57.31.47.29.51.36.41.36a3.08,3.08,0,0,0,.65-.76,4.81,4.81,0,0,0,.5-.92c.27.95.76,1.43,1.47,1.43H80a1.67,1.67,0,0,0,1.44-1l.14.37.29.43.49.16h4.39Zm1.94-2.64.29-.43.65-.85.48-.43c.09,0,.32.22.67.66l.29.33.86,1.23c0,.18-.24.27-.71.27a6.74,6.74,0,0,1-1.6-.22c-.58-.14-.89-.31-1-.5Zm-28.27.3a19,19,0,0,0-2.07-.94l0-.12a8.42,8.42,0,0,1,1.37-.76A11.77,11.77,0,0,1,61,120l0,0v0c.11.41.22.94.35,1.61a13.69,13.69,0,0,0,.31,1.42Zm20.93-.55-.28-.39a8.27,8.27,0,0,0-.8-.85,3.82,3.82,0,0,0-1-.69l.25-.06.67-.16.75-.08a4.89,4.89,0,0,1,2,.37Z"/><path class="cls-1" d="M99.41,126.36a4.24,4.24,0,0,0-.64-.33l-.41.52a5,5,0,0,0-.43.69A7.63,7.63,0,0,0,99,128a9.07,9.07,0,0,0,.86-1.31S99.75,126.57,99.41,126.36Z"/><polygon class="cls-1" points="99.1 128.06 99.04 128.02 98.99 128.06 99.1 128.06"/><path class="cls-1" d="M4.14,135.56c.11-.13.28-.37.52-.71a3.24,3.24,0,0,0,.38-.6,2.24,2.24,0,0,0-.53-.43,3.29,3.29,0,0,0-.64-.41s-.19.18-.45.54a4.09,4.09,0,0,0-.47.73l.17.16.46.35Z"/><path class="cls-1" d="M1.8,135.63c.11-.14.28-.38.52-.72a3.83,3.83,0,0,0,.38-.59s-.16-.18-.52-.44a4.32,4.32,0,0,0-.65-.41s-.19.18-.45.54a5.37,5.37,0,0,0-.47.73l.18.16.46.35Z"/><path class="cls-1" d="M19.29,144.09a5.7,5.7,0,0,0,.14-.75c.06-.38.11-.8.15-1.28l-.08-.88q-.24-2.76-.27-2.91c-1.56.78-2.33,1.25-2.3,1.4h.15l.55.18a8.27,8.27,0,0,1,.37,1.87,3,3,0,0,0,.14.67H7.07l-.3-.06-.2-.12L6.42,142l-.09-.26-.08-.35L6.17,141c-.24-1-.51-2.67-.82-5a5,5,0,0,0-1.07,1.33,3.84,3.84,0,0,0,.17.76l-.93.41-.22.12a13.48,13.48,0,0,0-2.42,1.54,4.57,4.57,0,0,0-.49.86A2.92,2.92,0,0,0,0,142l0,.06,1.6.88.52.29.56.31.47.29.52.36.41.35a3,3,0,0,0,.65-.75,4.24,4.24,0,0,0,.49-.93,1.78,1.78,0,0,0,1.13,1.39v.05h12.8ZM3.93,142A19,19,0,0,0,1.86,141l0-.13a9.09,9.09,0,0,1,1.36-.75,12.29,12.29,0,0,1,1.35-.64l0,0v0c.11.41.22.95.35,1.61a13.43,13.43,0,0,0,.31,1.43Z"/><polygon class="cls-1" points="15.05 147.46 15.15 147.46 15.09 147.41 15.05 147.46"/><path class="cls-1" d="M15.47,145.75a3,3,0,0,0-.65-.32,3.32,3.32,0,0,0-.4.52c-.21.31-.36.54-.44.68a9.59,9.59,0,0,0,1.11.78A10,10,0,0,0,16,146.1S15.82,146,15.47,145.75Z"/><path class="cls-1" d="M30.43,145.83a5.43,5.43,0,0,0-.41.68,7.31,7.31,0,0,0,1.1.78A8.57,8.57,0,0,0,32,146s-.16-.14-.51-.35a4.24,4.24,0,0,0-.64-.33A3.41,3.41,0,0,0,30.43,145.83Z"/><path class="cls-1" d="M28.34,145.87a5.39,5.39,0,0,0-.44.68,12.83,12.83,0,0,0,1.11.78,9,9,0,0,0,.88-1.31s-.15-.14-.5-.35a4.24,4.24,0,0,0-.64-.33A3.3,3.3,0,0,0,28.34,145.87Z"/><path class="cls-1" d="M35.06,134.11s-.19.18-.45.53a4.43,4.43,0,0,0-.47.74l.17.15.46.35.55.38c.11-.13.29-.38.53-.72a5,5,0,0,0,.38-.59s-.16-.17-.52-.43A3.3,3.3,0,0,0,35.06,134.11Z"/><path class="cls-1" d="M33.3,144.3H43.55a4.56,4.56,0,0,0,.65-2q0-.34-.26-7.73v-.26c-.08,0-.36.19-.81.61s-.69.68-.69.76v.23q.23,3.5.45,6.47h-2q-1.5-.57-4-4c-.66-.9-1.07-1.35-1.21-1.35s-.53.37-1.08,1.1a3.75,3.75,0,0,0-.83,1.42l.09,0,.16-.1.1-.12.51-.43c.2,0,.41.18.62.55a7.21,7.21,0,0,0,1.5,1.77,8.87,8.87,0,0,0,1.35,1.08l0,.14H32.13a22.76,22.76,0,0,0-.33-4.08l-1.58,1.6c.06.22.15.75.29,1.58a7.55,7.55,0,0,0,.18.9H24.76a.89.89,0,0,1-.74-.51,13.46,13.46,0,0,0-.88-2,3.73,3.73,0,0,0-.86-1.21c-.07,0-.2.34-.4,1a6,6,0,0,0-.29,1.14v.09a8.23,8.23,0,0,1,1.35,2,4.09,4.09,0,0,1,.43,1.57v.12a4.75,4.75,0,0,1-2,2.23,5.27,5.27,0,0,1-2.33,1,2.82,2.82,0,0,1-1.06-.3l-.36-.16a8.91,8.91,0,0,0,.81-1.24s-.15-.14-.49-.35a3.07,3.07,0,0,0-.64-.32,2.19,2.19,0,0,0-.42.52,5.76,5.76,0,0,0-.42.69,9.83,9.83,0,0,0,1.11.77h0v0h0l0,.05h.07l.44.38a5.54,5.54,0,0,0,2.85,1.28c.68,0,1.4-.57,2.15-1.71a8.23,8.23,0,0,0,1.37-3.24l.74.13H33.3Z"/><path class="cls-1" d="M46.09,135.19l-.35.44c0,.16,0,.7.09,1.63s.12,2.1.21,3.55.18,2.83.27,4.13l.22-.11.4-.51.34-.49.17-.27c0-1.79-.07-4.87-.23-9.23l-.4.21Z"/><polygon class="cls-1" points="54.82 137.49 54.74 137.56 54.78 137.66 54.78 137.66 54.82 137.49"/><path class="cls-1" d="M54.14,144.37c.5,0,1.06.12,1.71.21a12,12,0,0,1,1.37.27,2.7,2.7,0,0,0,.19-.55H72.23a1.67,1.67,0,0,0,1.44-1l.14.36.29.43.49.17h5.84a4.41,4.41,0,0,0,.66-2q0-.34-.27-7.73v-.26c-.08,0-.35.19-.81.61s-.68.68-.68.76v.23q.21,3.5.45,6.47H74.69a15.3,15.3,0,0,1,2.24-2.58,9.54,9.54,0,0,0,.18-1.58,9.12,9.12,0,0,0-3.77-.74,6.88,6.88,0,0,0-3.18.62,6.34,6.34,0,0,0-.7,2.09l.07,0,.08,0,.16,0,.61.17.47.32.48.5.37.4L72,142l.39.44h-11l-.26-8.07q-.27,0-.84.57a2.61,2.61,0,0,0-.66.8l.49,6.7H57.92a7.51,7.51,0,0,0-3-4.59l-.16-.14h0c-.2.05-.54.44-1,1.15s-.84,1.33-1.13,1.82l0,0,0,0a5.2,5.2,0,0,0-.43,1.6c-.92.14-1.45.42-1.58.86l.45,6.29a4.67,4.67,0,0,0,.62-.66,6.08,6.08,0,0,0,.59-.81c-.1-1.16-.23-2.39-.39-3.67H53.3Zm17.39-4.89.25-.06.66-.17.75-.07a4.92,4.92,0,0,1,2,.36l-1.58,1.87L73.3,141a7.35,7.35,0,0,0-.8-.85A3.65,3.65,0,0,0,71.53,139.48Zm-18.31,2.28.25-.46.58-.87.53-.44,2.07,2.4-1.44.06c-1.2,0-1.86-.14-2-.43Z"/><path class="cls-1" d="M83,135.19l-.34.44c0,.16,0,.7.09,1.63s.11,2.1.2,3.55.18,2.83.28,4.13l.21-.11.41-.51.33-.49.17-.27q0-2.69-.22-9.23l-.41.21Z"/><path class="cls-1" d="M91.73,150.33c.57.34,1,.6,1.21.77.15,0,.36-.24.62-.64a2,2,0,0,0,.4-.85h0l-1.19-.78-.26.3-.25.37,0,.19-1.31-.86c-.13,0-.32.24-.6.64a2.5,2.5,0,0,0-.43.86l1.17.77c.08,0,.27-.25.55-.67h0l.11-.12Z"/><polygon class="cls-1" points="91.5 144.3 91.44 144.28 91.5 144.36 91.5 144.3 91.5 144.3 91.5 144.3"/><polygon class="cls-1" points="101.59 136.78 101.66 136.88 101.58 136.75 101.59 136.78 101.59 136.78 101.59 136.78"/><path class="cls-1" d="M100,135.84l.55.38c.11-.14.29-.37.52-.72a6,6,0,0,0,.39-.59s-.17-.17-.53-.43a3.39,3.39,0,0,0-.64-.41s-.2.17-.45.53a4.31,4.31,0,0,0-.48.74l.18.15Z"/><path class="cls-1" d="M95.31,144.3h7a12.48,12.48,0,0,0,1-2.83,10.64,10.64,0,0,0-.64-2.35,13.51,13.51,0,0,0-1.09-2.34h0l-.07-.09-.35.33-.17.21a3,3,0,0,1-.77.43h0l0,0-.1,0c-.52.22-.94.41-1.26.58a4.34,4.34,0,0,0-1,.78,1.57,1.57,0,0,0-.5,1.12c0,.71.59,1.4,1.78,2.07l0,.12H91.93a6.33,6.33,0,0,1-.22.93,4.44,4.44,0,0,0-.21,1h0a13.43,13.43,0,0,1,3.2,1.54l-.49.18a7.09,7.09,0,0,1-1.28.39,6.89,6.89,0,0,1-1.47.19,2.77,2.77,0,0,1-1.78-.56,2.2,2.2,0,0,1-.7-1.84,5.8,5.8,0,0,1,1-3l-1.27.37a7.08,7.08,0,0,0-1,3.37,3.23,3.23,0,0,0,.93,2.42,3.52,3.52,0,0,0,2.58.92,8.32,8.32,0,0,0,2.8-.5q1.38-.51,1.5-1l.51-1.74a1.85,1.85,0,0,0-1-.64l0-.16Zm4.17-4.81a1,1,0,0,1,.87-.44l.34.18.39.61.37.76c.1.22.24.55.44,1l.3.82h-.12a3.27,3.27,0,0,1-1-.1,3.91,3.91,0,0,1-1.2-.81,1.75,1.75,0,0,1-.71-1.1Z"/><polygon class="cls-1" points="101.59 136.78 101.59 136.78 101.59 136.78 101.59 136.78 101.59 136.78"/><path class="cls-1" d="M37.37,70.34h33V33H33V70.34h4.39Zm3.54-6.14a2.34,2.34,0,0,1-.6.83l-.74.23-.07,0c-.53-.15-.1-1.18-.07-1.25l2.76-5.57,0-.05.65-.68v.74h0L41,64Zm2.45,0a1.57,1.57,0,0,1-.46.82l-.72.23-.08,0c-.59-.15-.34-1.18-.33-1.24l1.74-5.58,0,0,.53-.69c.32.1.15.74.15.74h0L43.41,64Zm2.36.79a.88.88,0,0,1-1.36,0,1.55,1.55,0,0,1-.16-1c.07-.91.11-1.81.15-2.72s.09-1.83.15-2.75.34-1,.54-1.06.48.28.54,1.06.11,1.83.15,2.75.08,1.81.15,2.72A1.55,1.55,0,0,1,45.72,65ZM48,65.2l-.08,0L47.18,65a1.64,1.64,0,0,1-.46-.82l0-.21-.79-5.56h0s-.17-.64.15-.74l.53.69v0L48.31,64C48.32,64,48.57,65.05,48,65.2Zm2.6,0-.07,0L49.78,65a2.24,2.24,0,0,1-.61-.83l-.08-.2-1.86-5.57h0v-.74l.65.68,0,.05L50.65,64C50.68,64.06,51.12,65.09,50.58,65.24Zm2.12-.12h-.06L52,64.9a2.9,2.9,0,0,1-.69-.82l-.11-.2-2.83-5.57h0l-.17-.74.68.68h0l0,0,3.57,5.57C52.5,63.93,53.1,65,52.7,65.12ZM66,66h-1.3c-.14-3.47-.24-7.35,0-7.54a3,3,0,0,0,1.33-1Zm0-28.58V53.52a3.21,3.21,0,0,0-1.25-1c-.51-.37-.71-.56-.76-4.24L64,48a1.67,1.67,0,0,0,1.06-1.58h0v0h0v0a1.72,1.72,0,0,0-1.17-1.54h-.11c-.07-1.19-.28-4.61-.42-7.43Zm-28.58,0h12.2l0,1.33-.15.09.14.09-.08,3-.16.08.16.08-.07,2.87-.43.21.41.21v.45L48.9,46l.44.21v.43l-.47.15v.12l.29.13v.59c-.52,0-.89.16-.89.36h0V49.1l-.44.23c0,.1.21.19.54.26v0l-.37.17.37.16V50c-.36.07-.58.15-.58.25l.45.21c.11.47.92.39.92.93v.93l-.44.26-.57.17-.53.47h0l.08.06,0,.09-.08.11.3.25.71.39.21.13.22.25h0L49,57.18a9.63,9.63,0,0,1,.86,1.06l.74,1-.16-4.74v0l.22-.22.21-.13.71-.39.3-.25-.08-.11,0-.09.08-.06h0l-.53-.47-.57-.17-.42-.26,0-.9c0-.54.81-.5.93-1l.41-.2c0-.09-.22-.18-.55-.24V50l.34-.16-.34-.16v-.05c.31-.07.5-.15.5-.25l-.44-.23V48h0c0-.2-.37-.32-.89-.36V47l.3-.13v-.12l-.47-.15V46.2l.43-.21-.45-.21v-.45l.42-.21-.43-.21L50,42l.15-.08L50,41.88l-.08-3,.15-.09-.15-.09,0-1.33H63.16c-.11,2.77-.26,5.75-.32,7.43h-.09a1.7,1.7,0,0,0-1.17,1.54v0h0v.08A1.75,1.75,0,0,0,62.65,48c.06,3.9-.19,4.26-.68,4.51h0a3.22,3.22,0,0,0-1.56,1.63c-.49.09-.78.21-.78.33s.22.21.59.3l-.05.44v.12h0v.17a3.23,3.23,0,0,0,2,2.87c.24.4.16,4.16,0,7.52H59.05l-.42-17.83L58,66H55.74c-.15-3-.28-6.74,0-6.85a2.5,2.5,0,0,0,1.6-2.39h0v-.05h0v-.1a2.56,2.56,0,0,0-1.82-2.34c-.85-.42-.39-2.78-.59-11.17l0-.45-.19.38v0c-.31,9.12-.19,10.88-.83,11.21a2.57,2.57,0,0,0-1.79,2.33v.1h0v.12a2.62,2.62,0,0,0,1.66,2.35c.28.14.23,2.84.11,5.47-1.22-1.77-3-4.27-4.3-6.17s-2.8-2.8-4.29-2.88h0a.79.79,0,0,0,.51-.75A.76.76,0,0,0,45,54a.75.75,0,0,0-.72.78.79.79,0,0,0,.51.75h0c-1.49.09-3,1.05-4.28,2.88-1,1.36-2.14,3-3.17,4.53Zm0,27,.25-.51,3.57-5.57,0,0h0l.68-.68-.17.74h0l-2.84,5.57-.11.2a2.9,2.9,0,0,1-.69.82l-.65.23h-.07Z"/><path class="cls-1" d="M39.69,43.82l.16.32.17-.32.49-.24.5.24.19.53V46h.16V42.28l-.69-.75a1.12,1.12,0,0,1-.37-.78h0v-.89h0L40,39.4l0-.39-.07-.26-.07.26,0,.39-.35.45h0v.89h0a1.08,1.08,0,0,1-.36.78l-.7.75V46h.17V44.35l.18-.53.5-.24Z"/><path class="cls-1" d="M40.93,57.27V46.06h0V44.35L40.81,44l-.3-.14-.28.14-.13.36v1.71h-.49V44.35L39.48,44l-.29-.14L38.9,44l-.12.36v1.71h0V60.3c.61-.88,1.22-1.75,1.77-2.52Z"/></g></svg>