<?xml version="1.0" encoding="utf-8"?>
<!-- Generator: Adobe Illustrator 25.4.1, SVG Export Plug-In . SVG Version: 6.00 Build 0)  -->
<svg version="1.1" id="Layer_1" xmlns="http://www.w3.org/2000/svg" xmlns:xlink="http://www.w3.org/1999/xlink" x="0px" y="0px"
	 viewBox="0 0 614.5 421.2" style="enable-background:new 0 0 614.5 421.2;" xml:space="preserve">
<style type="text/css">
	.st0{clip-path:url(#SVGID_00000180368410854142949500000012424182668791860371_);}
	.st1{opacity:0.2;}
	.st2{fill:#4B4938;}
	.st3{opacity:7.000000e-02;}
</style>
<g id="Layer_1_00000180343585401357839420000015992050909528361351_">
	<g>
		<defs>
			<rect id="SVGID_1_" y="0" width="614.5" height="421.2"/>
		</defs>
		<clipPath id="SVGID_00000003065389163966840630000010066511065444610437_">
			<use xlink:href="#SVGID_1_"  style="overflow:visible;"/>
		</clipPath>
		<g style="clip-path:url(#SVGID_00000003065389163966840630000010066511065444610437_);">
			<g class="st1">
				<path class="st2" d="M471.1,139.5c2.3,1.6,4.7,2.9,7.2,4.1c2.1,1,2.1,0.8,3.6-1.1c0.3-0.4,0.7-0.8,1.4-1.5
					c0.8,0.7,1.5,1.4,2.1,2.2c2.3,3.4,5,6.8,6.8,10.4c2.3,4.5,3.9,9.3,5.7,13.9c0.4,1,0.5,2.2,2.1,2.7c0.6-0.8,1.1-1.6,1.5-2.5
					c0.5-1.5,0.9-3,1.1-4.5c0.6-5.1,0.9-10.2,1.5-15.3c0.6-4.8,1.3-9.6,2.1-14.4c0.3-1.4,0.8-2.8,1.7-4.1c1.4-2.2,3.2-2.5,5.4-1.2
					c1.3,1,2.6,2,3.8,3.1c0.5,0.4,1,0.7,1.7,1.2c1.2-2.4,1.7-5.1,1.6-7.8c-0.1-4.1-2.3-7.2-5.9-8.3c-3.7-1.1-6.9,0.3-9.2,4.1
					c-1.7,2.7-2.8,5.8-3.3,9c-0.8,6.4-1.5,12.9-2.2,19.4c-0.2,1.8-0.4,3.6-0.5,5.5c-0.6-0.4-1-0.9-1.3-1.5
					c-1.9-4.2-3.7-8.4-5.8-12.5c-2-3.8-4.5-7.2-7.6-10.2c-2-2.1-4.5-3.6-7.2-4.5c-2.3-0.7-2.9-0.6-4,1.5c-1.3,2.5-2.5,5-3.6,7.5
					C469,136.9,469.1,138.1,471.1,139.5"/>
				<path class="st2" d="M421.9,226l-1-0.2c-0.4,0.6-0.8,1.2-1.1,1.8c-3.7,8.5-7.8,16.8-11.1,25.5c-1.6,4.2-2.1,8.9-2.7,13.4
					c-0.7,4.8,0,9.8,2,14.3c2,4.3,4.7,8.1,9.9,8.3c5.6,0.2,8.9-3.4,11.2-7.9c0.8-1.6,1.3-3.3,1.4-5c0.2-3.5,0-7-0.1-10.6
					c0-0.9-0.6-1.8-1.1-3.3c-0.9,2.2-1.5,3.7-2.2,5.1c-1,2.3-2.3,4.4-3.8,6.4c-2.9,3.5-6.3,3.1-7.7-1.2c-1.1-3.3-1.5-6.9-1.5-10.4
					c0.2-8.8,3-17,5.2-25.4C420.3,233.2,421.1,229.6,421.9,226"/>
				<path class="st2" d="M320.4,185.3c12-8.5,24.1-16.9,36-25.6c21.2-15.5,42-31.5,64.1-45.8c4.8-3.1,6.9-11.4,4.9-17.1
					c-2.4,2.2-4.5,4.6-7,6.4c-18.5,13.4-37,26.8-55.5,40.1c-14.5,10.4-28.9,20.7-43.5,30.8c-5.8,4-7.7,12.9-3.7,19
					C317.2,188.1,317.9,187.1,320.4,185.3"/>
				<path class="st2" d="M419.8,152c-0.1,0.1-1.8,6.5-1.9,7.1c-0.2,1.2-0.4,3.1-0.4,3.4c0,0.4,0.1,0.9,0.2,1.3
					c0,0.1,0.1,0.2,0.1,0.3l12.5,27.4c0,0-0.7,0.8-1.3,1.4c-0.1,0.1-3.9,1.7-4.1,1.7c-0.5,0-4.9-0.4-5.2-0.4c-1.1-0.5-2.1-1-3.2-1.5
					c-0.5-0.3-2.8-2.3-3.1-2.7c-0.6-0.7-1.1-1.4-1.5-2.1c-0.3-0.5-1.8-3.7-2.1-4.4c-0.4-1.1-4.2-14.3-4.5-14.9
					c-0.5-1.1-1.5-3.3-2.2-4.9c-0.4-0.8-3.8-6.9-4.2-7.4c-0.6-0.9-1.3-1.8-1.3-1.8s-0.3,0.4-0.6,0.8c-0.1,0.1-1.3,11-1.3,11.1
					c0.2,0.5,1.4,2.9,2.2,4.6c0.2,0.5,4.3,12.2,4.5,12.8c0.3,1.2,0.5,2.3,0.6,3.5c0.1,0.6,0,4.6,0,5.1c-0.2,1.4-0.6,2.8-1.1,4.1
					c-0.1,0.3-2.3,3.2-2.6,3.5c-0.9,0.7-1.8,1.3-2.7,1.9c-1.3,0.7-2.8,1.2-4.4,1.3c-0.9-0.1-1.8-0.2-2.6-0.4
					c-0.6-0.2-1.1-0.5-1.6-0.8c-0.7-0.5-1.4-1.1-2-1.6c-1-1.4-1.9-3-2.4-4.7c0-0.1-0.1-0.2-0.1-0.3l-3.2-23.7c0-0.1,0-0.2-0.1-0.3
					c-0.2-0.4-0.4-0.9-0.6-1.4c-0.1-0.4-0.4-2.5-0.5-2.9s-2.5-4.5-2.5-4.5s-2.6,11.8-2.6,12.1c0.1,1.3,1,2.3,1.9,4.6
					c0.1,0.3,1,4.6,1,5.2c0.1,1.5,2.8,20.4,2.9,20.8s2,4.6,2.2,4.9c0.3,0.5,2.3,2.6,2.7,3c0.4,0.3,0.7,0.6,1.1,0.9
					c0.9,0.5,1.8,0.9,2.7,1.3c1,0.2,2,0.3,3,0.4c2.6-0.3,5.1-1.3,7.1-3.1c0.3-0.3,2.4-3,2.8-3.6s2-3.9,2.1-4.3s2.6-11.9,2.6-11.9
					s0.9,2.3,1.4,3.6c0.2,0.4,2.8,4.3,3.1,4.6c0.7,0.7,2.2,2.2,2.7,2.6s2.8,1.7,3.4,1.9s4.6,1.4,5,1.4c0.6,0.1,1.2,0.1,1.8,0
					c1.2-0.2,2.3-0.4,3.4-0.7c0.6-0.2,1.1-0.5,1.6-0.8c0.3-0.2,2.6-2.5,2.8-2.8c1.2-1.9,2.1-4,2.7-6.1c0.1-0.4,0.9-6.9,0.9-7.3
					s-1.4-7.8-1.5-8.2c-0.2-0.7-13.1-29.7-13.1-29.7S420.2,151.6,419.8,152"/>
				<path class="st2" d="M534.4,214.6c5.3,4.5,10.2,8.6,15.1,12.8c6-6.4,6.2-12.1,0.8-17.9c-1.5-1.5-3.2-2.9-4.9-4.2
					c-1.4-1.1-2.8-2.2-4.2-3.4c3.5-7.6,4-15.1,3-22.8c-0.5-4.5-1.5-8.9-4.2-12.6c-4-5.5-9.5-6.2-14.5-1.8
					c-7.5,6.7-12.6,14.8-14.6,24.9c-1.1,5.5,0.5,9.9,4.6,13.3c2.6,2,5.4,3.9,8.2,5.6c1.8,1.1,3.7,2.1,6,3.4
					c-1.3,2.1-2.6,4.1-4.2,5.9c-7.3,7.9-14.3,16.2-22.4,23.4c-11,9.8-22.2,19.3-33.6,28.6l-11.1,9c-0.8,0.6-1.5,1.2-2.2,1.8
					c-11.8,9.4-24.5,17.7-36.8,26.4c-3.1,2.2-6.5,3.9-9.8,5.8c17.6-6.2,34.5-14.2,50.4-24l11.4-7.5
					C496.6,263.4,518,240.8,534.4,214.6z M519.8,187.1c-1.6-1.1-1.5-2.7-0.4-4.4c4.3-6.6,12.2-6.4,16,0.4c2.5,4.5,3,9,1.1,15.2
					C530.7,194.4,525.2,190.8,519.8,187.1z"/>
			</g>
			<g class="st3">
				<path class="st2" d="M348.9,93.3c3.9,2.7,8,5,12.3,7c3.5,1.7,3.7,1.4,6.2-1.9c0.5-0.7,1.2-1.3,2.3-2.5c1.3,1.2,2.5,2.4,3.6,3.8
					c4,5.9,8.5,11.6,11.6,17.9c3.9,7.7,6.6,15.8,9.8,23.8c0.7,1.8,0.9,3.8,3.6,4.6c1-1.3,1.9-2.8,2.6-4.3c0.9-2.5,1.6-5.1,1.9-7.7
					c1-8.7,1.6-17.4,2.6-26.1c1-8.2,2.2-16.5,3.6-24.6c0.5-2.5,1.4-4.8,2.8-6.9c2.4-3.7,5.5-4.3,9.2-2c2.3,1.6,4.5,3.4,6.6,5.3
					c0.8,0.7,1.8,1.2,2.9,2c2-4.2,2.9-8.8,2.8-13.4c-0.1-7-4-12.4-10.1-14.2c-6.4-1.9-11.8,0.5-15.7,7c-2.9,4.7-4.8,9.9-5.6,15.4
					c-1.4,11-2.5,22.1-3.8,33.2c-0.4,3.1-0.6,6.2-1,9.3c-1-0.6-1.7-1.5-2.2-2.6c-3.3-7.2-6.3-14.4-9.9-21.4
					c-3.3-6.5-7.7-12.4-13-17.4c-3.4-3.6-7.7-6.2-12.4-7.8c-4-1.2-5-0.9-6.9,2.6c-2.2,4.2-4.2,8.5-6.2,12.8
					C345.3,88.9,345.5,90.9,348.9,93.3"/>
				<path class="st2" d="M264.9,241c-0.6-0.1-1.2-0.2-1.8-0.3c-0.7,1-1.4,2-1.9,3.1c-6.4,14.5-13.3,28.8-18.9,43.5
					c-2.7,7.2-3.7,15.1-4.6,22.8c-1.2,8.3,0,16.7,3.4,24.4c3.4,7.4,8,13.8,17,14.1c9.5,0.3,15.2-5.8,19.2-13.5
					c1.4-2.7,2.2-5.6,2.4-8.6c0.3-6,0-12-0.2-18.1c0-1.5-1-3-2-5.7c-1.6,3.7-2.5,6.3-3.8,8.7c-2,3.8-3.8,7.8-6.5,11
					c-5,6-10.7,5.3-13.1-2c-1.8-5.7-2.6-11.7-2.5-17.7c0.3-15,5.1-29.1,8.9-43.5C262.1,253.2,263.4,247.1,264.9,241"/>
				<path class="st2" d="M91.3,171.5c20.5-14.5,41.2-28.9,61.5-43.7c36.2-26.5,71.8-53.9,109.6-78.3c8.2-5.3,11.9-19.5,8.3-29.2
					c-4,3.8-7.6,7.9-12,11c-31.5,23-63.2,45.8-94.9,68.6c-24.7,17.7-49.4,35.3-74.3,52.7c-9.9,6.9-13.2,21.9-6.3,32.4
					C85.9,176.3,87,174.5,91.3,171.5"/>
				<path class="st2" d="M261.2,114.6c-0.1,0.2-3,11.1-3.2,12.1c-0.3,2-0.7,5.2-0.7,5.8c0.1,0.7,0.2,1.4,0.4,2.2
					c0,0.2,0.1,0.4,0.2,0.5l21.3,46.9c0,0-1.2,1.3-2.2,2.3c-0.2,0.2-6.6,2.8-7,2.9c-0.8,0-8.4-0.6-9-0.8c-1.8-0.8-3.7-1.6-5.4-2.6
					c-0.8-0.5-4.7-4-5.3-4.6c-0.9-1.1-1.8-2.3-2.6-3.6c-0.5-0.9-3.1-6.4-3.5-7.6c-0.7-1.8-7.2-24.4-7.7-25.5
					c-0.8-1.9-2.6-5.7-3.8-8.3c-0.7-1.4-6.6-11.8-7.2-12.6c-1-1.4-2.3-3-2.3-3s-0.5,0.7-1,1.3c-0.1,0.2-2.3,18.8-2.2,19
					c0.3,0.9,2.3,4.9,3.8,7.9c0.4,0.9,7.4,20.9,7.6,21.9c0.4,2,0.8,4,1,6c0.1,1,0.1,7.9,0,8.7c-0.4,2.4-1,4.8-2,7
					c-0.2,0.5-4,5.5-4.4,6c-1.5,1.2-3.1,2.2-4.7,3.2c-2.3,1.3-4.8,2-7.5,2.2c-1.5-0.1-3-0.4-4.5-0.7c-1-0.4-1.9-0.8-2.8-1.4
					c-1.2-0.9-2.3-1.9-3.4-2.9c-1.8-2-2.8-4.8-4.1-8c-0.1-0.2-0.1-0.3-0.1-0.5l-5.4-40.5c0-0.2-0.1-0.4-0.2-0.5
					c-0.4-0.8-0.8-1.5-1.1-2.4c-0.2-0.6-0.6-4.2-0.8-4.9s-4.2-7.7-4.2-7.7s-4.5,20.2-4.5,20.6c0.1,2.3,1.6,3.9,3.2,7.8
					c0.2,0.6,1.7,7.8,1.8,8.9c0.2,2.5,4.8,34.8,5,35.6s3.5,7.8,3.8,8.3c0.6,0.8,3.9,4.5,4.6,5.2c0.6,0.6,1.3,1.1,1.9,1.5
					c1.5,0.8,3.1,1.6,4.6,2.2c1.7,0.3,3.4,0.5,5.1,0.6c4.5-0.5,8.7-2.3,12.2-5.2c0.5-0.4,4-5.1,4.7-6.2c0.5-0.9,3.4-6.6,3.6-7.3
					c0.3-1,4.4-20.4,4.4-20.4s1.4,3.9,2.5,6.2c0.3,0.6,4.8,7.4,5.2,7.9c1.5,1.6,3,3,4.7,4.4c0.6,0.5,4.8,2.9,5.7,3.3
					s7.9,2.4,8.5,2.5c1,0.1,2.1,0.1,3.1,0c2-0.3,3.9-0.7,5.9-1.1c1-0.4,1.9-0.9,2.8-1.4c0.5-0.4,4.5-4.2,4.9-4.7
					c1.8-2.5,3.7-7.4,4.6-10.5c0.2-0.7,1.6-11.7,1.6-12.5c0-0.6-2.4-13.3-2.6-14.1c-0.4-1.2-22.4-50.8-22.4-50.8
					C262,113.7,261.6,114.1,261.2,114.6"/>
				<path class="st2" d="M457.1,221.6c9,7.7,17.4,14.8,25.8,21.8c10.2-10.9,10.7-20.7,1.5-30.6c-2.6-2.6-5.4-5-8.3-7.3
					c-2.3-1.9-4.8-3.8-7.2-5.8c5.9-12.9,6.8-25.8,5.2-39c-0.9-7.6-2.6-15.2-7.2-21.6c-6.8-9.4-16.3-10.6-24.9-3
					c-12.8,11.4-21.6,25.3-24.9,42.5c-1.8,9.5,0.9,16.9,7.9,22.8c4.3,3.6,9.3,6.5,14.1,9.5c3.1,1.9,6.3,3.6,10.2,5.9
					c-2.6,3.8-4.5,7.3-7.1,10.1c-12.6,13.5-24.5,27.8-38.2,40c-18.8,16.7-37.9,33-57.4,48.9l-19,15.3c-1.3,1-2.6,2.1-3.9,3.1
					c-20.2,16-41.8,30.2-63,45c-5.3,3.7-11.2,6.6-16.8,9.9c30.1-10.5,59-24.3,86.2-41l19.5-12.8C391.6,305.6,427.6,268,457.1,221.6z
					 M432.1,174.5c-2.7-1.9-2.6-4.6-0.7-7.5c7.4-11.3,20.8-11,27.4,0.6c4.3,7.6,5.1,15.4,1.9,26
					C450.7,187.1,441.3,180.9,432.1,174.5L432.1,174.5z"/>
			</g>
		</g>
	</g>
</g>
</svg>
